<?xml version="1.0" encoding="UTF-8" standalone="no"?>
<svg
   xmlns:dc="http://purl.org/dc/elements/1.1/"
   xmlns:cc="http://creativecommons.org/ns#"
   xmlns:rdf="http://www.w3.org/1999/02/22-rdf-syntax-ns#"
   xmlns:svg="http://www.w3.org/2000/svg"
   xmlns="http://www.w3.org/2000/svg"
   version="1.1"
   id="svg5460"
   viewBox="0 0 107.93198 51.041997"
   height="51.041996"
   width="107.93198">
  <defs
     id="defs5462" />
  <metadata
     id="metadata5465">
    <rdf:RDF>
      <cc:Work
         rdf:about="">
        <dc:format>image/svg+xml</dc:format>
        <dc:type
           rdf:resource="http://purl.org/dc/dcmitype/StillImage" />
        <dc:title></dc:title>
      </cc:Work>
    </rdf:RDF>
  </metadata>
  <g
     transform="translate(-88.095412,10.520735)"
     id="g4803">
    <path
       id="path96"
       style="fill:#ececec;fill-opacity:1;fill-rule:nonzero;stroke:none;stroke-width:0.16420721"
       d="m 129.93572,-10.496847 c -0.80527,0 -1.44896,0.362733 -1.86424,1.0540457 l -5.7911,9.7734487 -5.79454,-9.7770613 c -0.41348,-0.6877001 -1.05717,-1.0522401 -1.86031,-1.0522401 -0.59097,0 -1.12038,0.21971 -1.53402,0.6333475 -0.41348,0.4119959 -0.63138,0.9433704 -0.63138,1.5327101 V 2.7344774 h 2.29135 l 0.001,-10.610742 5.65464,9.5773854 c 0.41216,0.6876993 1.05717,1.05224 1.86244,1.05224 0.80494,0 1.44848,-0.3645407 1.86211,-1.0558525 l 5.67681,-9.5772213 V 2.7344774 h 2.28971 V -8.3325964 c 0,-0.591146 -0.22267,-1.1238341 -0.64681,-1.5378005 -0.42695,-0.4172501 -0.93598,-0.6264501 -1.51646,-0.6264501" />
    <path
       id="path100"
       style="fill:#ececec;fill-opacity:1;fill-rule:nonzero;stroke:none;stroke-width:0.16420721"
       d="M 167.05444,2.7386804 V -7.8193503 l -5.70078,9.6164666 c -0.41889,0.701822 -1.07244,1.0693172 -1.88789,1.0693172 -0.81709,0 -1.46899,-0.3674952 -1.88954,-1.0657047 l -5.67516,-9.6153172 -0.004,8.48622853 c 0,0.59771417 -0.22135,1.13598537 -0.6419,1.55487787 -0.41839,0.4184004 -0.95469,0.6399155 -1.55224,0.6399155 -0.81709,0 -1.46899,-0.3674952 -1.88772,-1.0657047 l -5.83035,-9.8381464 -5.82673,9.8345339 c -0.42053,0.701822 -1.07424,1.0693172 -1.88953,1.0693172 -0.58918,0 -1.10643,-0.212813 -1.53698,-0.6351531 -0.35436,-0.3438501 -0.56881,-0.769311 -0.63318,-1.24272042 V 26.782228 h 37.27241 V 2.7386804 Z" />
    <path
       d="m 169.35605,-10.492644 h 2.30662 V 2.7473839 h -2.30662 z"
       style="fill:#ececec;fill-opacity:1;fill-rule:nonzero;stroke:none;stroke-width:0.16420721"
       id="path102" />
    <path
       id="path106"
       style="fill:#ececec;fill-opacity:1;fill-rule:nonzero;stroke:none;stroke-width:0.16420721"
       d="m 141.69608,-10.499688 h -7.28751 V 0.1678689 l 5.69914,-9.6153173 c 0.36601,-0.6128216 0.9125,-0.9721066 1.58837,-1.0522396" />
    <path
       id="path110"
       style="fill:#ececec;fill-opacity:1;fill-rule:nonzero;stroke:none;stroke-width:0.16420721"
       d="m 153.64599,-9.450946 5.83034,9.83847481 5.82853,-9.83502651 c 0.36766,-0.6128213 0.9125,-0.9719423 1.58969,-1.0522393 h -14.83694 c 0.67752,0.0803 1.22236,0.439418 1.58838,1.048791" />
    <path
       id="path114"
       style="fill:#ececec;fill-opacity:1;fill-rule:nonzero;stroke:none;stroke-width:0.16420721"
       d="m 143.885,-9.4492054 5.67731,9.61531724 0.001,-8.48803474 c 0,-0.595908 0.22086,-1.1338508 0.64139,-1.5543855 0.35436,-0.3545236 0.79361,-0.5671716 1.28377,-0.6233306 h -9.19231 c 0.67767,0.08013 1.2207,0.439254 1.58804,1.0504336" />
    <path
       d="m 118.38449,26.782228 h -5.92427 v -5.925746 h 5.92427 z"
       style="fill:#ececec;fill-opacity:1;fill-rule:nonzero;stroke:none;stroke-width:0.16420721"
       id="path116" />
    <path
       d="M 132.09891,40.500263 H 118.38449 V 26.782228 h 13.71442 z"
       style="fill:#ececec;fill-opacity:1;fill-rule:nonzero;stroke:none;stroke-width:0.16420721"
       id="path118" />
    <path
       id="path122"
       style="fill:#ececec;fill-opacity:1;fill-rule:nonzero;stroke:none;stroke-width:0.16420721"
       d="m 169.37119,-10.492709 v 2.0893721 c 0,0 0.0329,-0.7497701 -0.60543,-1.4195713 -0.63827,-0.6698008 -1.44584,-0.6698008 -1.44584,-0.6698008 z" />
  </g>
</svg>
