<?xml version="1.0" encoding="UTF-8" standalone="no"?>
<svg
   xmlns:dc="http://purl.org/dc/elements/1.1/"
   xmlns:cc="http://creativecommons.org/ns#"
   xmlns:rdf="http://www.w3.org/1999/02/22-rdf-syntax-ns#"
   xmlns:svg="http://www.w3.org/2000/svg"
   xmlns="http://www.w3.org/2000/svg"
   width="107.93198"
   height="51.041996"
   viewBox="0 0 107.93198 51.041997"
   id="svg5460"
   version="1.1">
  <defs
     id="defs5462" />
  <metadata
     id="metadata5465">
    <rdf:RDF>
      <cc:Work
         rdf:about="">
        <dc:format>image/svg+xml</dc:format>
        <dc:type
           rdf:resource="http://purl.org/dc/dcmitype/StillImage" />
        <dc:title></dc:title>
      </cc:Work>
    </rdf:RDF>
  </metadata>
  <path
     style="fill:#ececec;fill-opacity:1"
     d="m 23.932,0.01100057 c -1.104,0 -1.985,0.496 -2.553,1.44200003 L 13.449,14.834001 5.513,1.4500006 C 4.949,0.50700057 4.066,0.01100057 2.964,0.01100057 c -0.806,0 -1.533,0.299 -2.099,0.864 C 0.299,1.4410006 0,2.1660006 0,2.9740006 l 0,15.1530004 3.137,0 L 3.14,3.5990006 10.883,16.710001 c 0.564,0.942 1.446,1.44 2.551,1.44 1.101,0 1.983,-0.497 2.55,-1.444 l 7.773,-13.1120004 0,14.5320004 3.138,0 0,-15.1520004 c 0,-0.811 -0.308,-1.538 -0.888,-2.10600003 -0.583,-0.57 -1.282,-0.857 -2.075,-0.857 z"
     id="path571" />
  <rect
     style="fill:#ececec;fill-opacity:1"
     x="81.036987"
     y="0.01100051"
     width="3.1389999"
     height="18.124001"
     id="rect573" />
  <path
     style="fill:#ececec;fill-opacity:1"
     d="m 41.577,5.7070275e-7 -9.98,0 L 31.597,14.605001 39.4,1.4410006 C 39.901,0.60300057 40.649,0.11100057 41.577,5.7070275e-7 Z"
     id="path577" />
  <path
     style="fill:#ececec;fill-opacity:1"
     d="m 76.301,18.124001 0,-14.4540004 -7.807,13.1650004 c -0.576,0.96 -1.471,1.465 -2.586,1.465 -1.119,0 -2.014,-0.505 -2.588,-1.46 L 55.547,3.6770006 55.545,15.295001 c 0,0.818 -0.305,1.554 -0.877,2.128 -0.576,0.573 -1.311,0.877 -2.127,0.877 -1.119,0 -2.013,-0.505 -2.585,-1.46 L 41.972,3.3730006 33.993,16.835001 c -0.575,0.96 -1.472,1.465 -2.588,1.465 -0.807,0 -1.514,-0.292 -2.104,-0.87 -0.484,-0.471 -0.777,-1.054 -0.867,-1.702 l 0,35.314 51.041,0 0,-32.918 -3.174,0 z"
     id="path579" />
  <path
     style="fill:#ececec;fill-opacity:1"
     d="M 57.938,1.4380006 65.92,14.905001 73.904,1.4420006 c 0.502,-0.84000003 1.25,-1.33100003 2.176,-1.44100003 l -20.316,0 c 0.927,0.11 1.672,0.601 2.174,1.43700003 z"
     id="path581" />
  <path
     style="fill:#ececec;fill-opacity:1"
     d="M 44.571,1.4380006 52.346,14.601001 52.348,2.9840006 c 0,-0.817 0.303,-1.555 0.879,-2.13000003 0.484,-0.484 1.087,-0.773 1.757,-0.85399999929725 l -12.588,0 C 43.324,0.11100057 44.069,0.60200057 44.571,1.4380006 Z"
     id="path583" />
  <text
     id="text4139"
     y="51.042"
     x="82.721489"
     style="font-style:normal;font-weight:normal;font-size:2.2756362px;line-height:125%;font-family:sans-serif;text-align:center;letter-spacing:0px;word-spacing:0px;text-anchor:middle;fill:#ececec;fill-opacity:1;stroke:none;stroke-width:1px;stroke-linecap:butt;stroke-linejoin:miter;stroke-opacity:1;"
     xml:space="preserve"><tspan
       y="51.042"
       x="82.721489"
       id="tspan4141">TM</tspan></text>
</svg>
