<?xml version="1.0" encoding="UTF-8" standalone="no"?>
<svg
   xmlns:dc="http://purl.org/dc/elements/1.1/"
   xmlns:cc="http://creativecommons.org/ns#"
   xmlns:rdf="http://www.w3.org/1999/02/22-rdf-syntax-ns#"
   xmlns:svg="http://www.w3.org/2000/svg"
   xmlns="http://www.w3.org/2000/svg"
   version="1.1"
   id="svg8647"
   viewBox="0 0 176.318 106.919"
   height="30.174917mm"
   width="49.760857mm">
  <defs
     id="defs8649" />
  <metadata
     id="metadata8652">
    <rdf:RDF>
      <cc:Work
         rdf:about="">
        <dc:format>image/svg+xml</dc:format>
        <dc:type
           rdf:resource="http://purl.org/dc/dcmitype/StillImage" />
        <dc:title></dc:title>
      </cc:Work>
    </rdf:RDF>
  </metadata>
  <g
     transform="translate(225.30186,-427.47413)"
     id="layer1">
    <g
       id="g99"
       transform="translate(-301.96786,179.88113)">
      <g
         id="g101">
        <g
           id="g103">
          <path
             id="path105"
             d="m 126.793,247.612 c -2.309,0 -4.157,1.042 -5.347,3.025 l -16.613,28.028 -16.618,-28.037 c -1.186,-1.974 -3.032,-3.016 -5.34,-3.016 -1.69,0 -3.21,0.627 -4.396,1.813 -1.186,1.186 -1.813,2.706 -1.813,4.397 l 0,31.741 6.571,0 0.005,-30.432 16.22,27.465 c 1.184,1.974 3.032,3.017 5.343,3.017 2.308,0 4.154,-1.042 5.343,-3.025 l 16.282,-27.467 0,30.442 6.571,0 0,-31.741 c 0,-1.698 -0.641,-3.224 -1.858,-4.413 -1.224,-1.193 -2.686,-1.797 -4.35,-1.797 z"
             style="fill:#808285" />
          <rect
             id="rect107"
             height="37.969002"
             width="6.5700002"
             y="247.612"
             x="246.414"
             style="fill:#808285" />
        </g>
        <g
           id="g109">
          <path
             id="path111"
             d="m 163.753,247.594 -20.906,0 0,30.593 16.346,-27.574 c 1.053,-1.759 2.619,-2.789 4.56,-3.019 z"
             style="fill:#35b0e5" />
          <path
             id="path113"
             d="m 236.488,285.557 0,-30.277 -16.348,27.578 c -1.204,2.009 -3.078,3.068 -5.419,3.068 -2.341,0 -4.213,-1.059 -5.416,-3.059 l -16.284,-27.575 -0.006,24.338 c 0,1.715 -0.637,3.256 -1.84,4.459 -1.201,1.201 -2.743,1.837 -4.456,1.837 -2.341,0 -4.214,-1.057 -5.414,-3.059 l -16.724,-28.211 -16.716,28.203 c -1.206,2.01 -3.079,3.067 -5.419,3.067 -1.689,0 -3.172,-0.613 -4.41,-1.822 -1.014,-0.986 -1.627,-2.208 -1.816,-3.566 l 0,73.974 106.914,0 0,-68.954 -6.646,0 z"
             style="fill:#35b0e5" />
          <path
             id="path115"
             d="m 198.028,250.603 16.724,28.209 16.717,-28.202 c 1.055,-1.758 2.619,-2.787 4.561,-3.017 l -42.555,0 c 1.941,0.231 3.503,1.259 4.553,3.01 z"
             style="fill:#35b0e5" />
          <path
             id="path117"
             d="m 170.028,250.604 16.286,27.573 0.005,-24.337 c 0,-1.712 0.635,-3.256 1.839,-4.459 1.017,-1.017 2.279,-1.624 3.682,-1.787 l -26.367,0 c 1.943,0.23 3.505,1.259 4.555,3.01 z"
             style="fill:#35b0e5" />
        </g>
      </g>
      <g
         id="g119">
        <path
           id="path121"
           d="m 142.861,347.86 0,-4.562 0.891,0 0,4.562 -0.891,0 z"
           style="fill:#ffffff" />
        <path
           id="path123"
           d="m 147.792,347.86 -1.807,-2.801 0,2.801 -0.891,0 0,-4.562 0.794,0 1.808,2.793 0,-2.793 0.891,0 0,4.562 -0.795,0 z"
           style="fill:#ffffff" />
        <path
           id="path125"
           d="m 153.246,346.073 c 0,0.166 -0.014,0.328 -0.039,0.486 -0.025,0.158 -0.07,0.311 -0.135,0.455 -0.065,0.144 -0.16,0.281 -0.288,0.41 -0.149,0.15 -0.328,0.26 -0.535,0.33 -0.208,0.07 -0.431,0.105 -0.67,0.105 l -1.647,0 0,-4.562 1.647,0 c 0.239,0 0.462,0.035 0.67,0.105 0.207,0.07 0.386,0.18 0.535,0.33 0.128,0.127 0.224,0.262 0.288,0.404 0.064,0.141 0.109,0.287 0.135,0.441 0.026,0.154 0.039,0.314 0.039,0.48 0,0.162 0,0.33 0,0.5 0,0.174 0,0.344 0,0.516 z m -0.899,-0.959 c -0.004,-0.125 -0.012,-0.236 -0.025,-0.33 -0.012,-0.094 -0.031,-0.174 -0.058,-0.236 -0.025,-0.064 -0.06,-0.123 -0.103,-0.174 -0.076,-0.094 -0.168,-0.164 -0.275,-0.211 -0.107,-0.047 -0.237,-0.07 -0.391,-0.07 l -0.674,0 0,2.973 0.674,0 c 0.153,0 0.283,-0.023 0.391,-0.07 0.108,-0.047 0.199,-0.117 0.275,-0.211 0.081,-0.104 0.134,-0.246 0.157,-0.43 0.023,-0.184 0.035,-0.449 0.035,-0.795 0.001,-0.17 -0.001,-0.319 -0.006,-0.446 z"
           style="fill:#ffffff" />
        <path
           id="path127"
           d="m 157.639,346.956 c -0.087,0.197 -0.207,0.365 -0.358,0.504 -0.152,0.139 -0.329,0.246 -0.532,0.324 -0.202,0.076 -0.422,0.115 -0.657,0.115 -0.234,0 -0.453,-0.039 -0.656,-0.115 -0.203,-0.078 -0.381,-0.186 -0.533,-0.324 -0.15,-0.139 -0.271,-0.307 -0.358,-0.504 -0.087,-0.195 -0.132,-0.416 -0.132,-0.658 l 0,-3 0.892,0 0,2.967 c 0,0.266 0.07,0.471 0.212,0.619 0.141,0.146 0.333,0.221 0.576,0.221 0.244,0 0.438,-0.074 0.58,-0.221 0.144,-0.148 0.215,-0.354 0.215,-0.619 l 0,-2.967 0.885,0 0,3 c -0.002,0.242 -0.046,0.463 -0.134,0.658 z"
           style="fill:#ffffff" />
        <path
           id="path129"
           d="m 161.894,347.104 c -0.088,0.172 -0.207,0.314 -0.359,0.434 -0.151,0.117 -0.33,0.207 -0.535,0.268 -0.205,0.062 -0.427,0.094 -0.666,0.094 -0.346,0 -0.655,-0.043 -0.926,-0.131 -0.271,-0.088 -0.52,-0.246 -0.74,-0.473 l 0.576,-0.576 c 0.145,0.146 0.312,0.246 0.5,0.301 0.188,0.057 0.389,0.084 0.603,0.084 0.265,0 0.466,-0.049 0.603,-0.145 0.137,-0.096 0.205,-0.236 0.205,-0.42 0,-0.166 -0.047,-0.295 -0.141,-0.385 -0.047,-0.043 -0.1,-0.076 -0.158,-0.1 -0.057,-0.023 -0.139,-0.043 -0.246,-0.061 l -0.551,-0.076 c -0.389,-0.055 -0.684,-0.182 -0.885,-0.379 -0.218,-0.217 -0.327,-0.516 -0.327,-0.896 0,-0.205 0.036,-0.393 0.109,-0.561 0.072,-0.17 0.177,-0.314 0.313,-0.438 0.137,-0.121 0.304,-0.215 0.5,-0.285 0.197,-0.068 0.419,-0.102 0.667,-0.102 0.315,0 0.592,0.041 0.827,0.121 0.234,0.082 0.45,0.219 0.646,0.41 l -0.563,0.559 c -0.146,-0.137 -0.3,-0.223 -0.465,-0.26 -0.165,-0.037 -0.321,-0.055 -0.472,-0.055 -0.238,0 -0.416,0.057 -0.531,0.17 -0.115,0.113 -0.174,0.248 -0.174,0.406 0,0.061 0.012,0.119 0.033,0.174 0.021,0.055 0.055,0.107 0.102,0.154 0.047,0.043 0.106,0.08 0.177,0.111 0.07,0.033 0.153,0.055 0.247,0.068 l 0.538,0.076 c 0.21,0.029 0.382,0.074 0.519,0.131 0.137,0.059 0.255,0.133 0.354,0.223 0.123,0.115 0.213,0.254 0.269,0.416 0.056,0.162 0.083,0.346 0.083,0.551 -0.001,0.225 -0.044,0.421 -0.132,0.592 z"
           style="fill:#ffffff" />
        <path
           id="path131"
           d="m 164.999,344.093 0,3.768 -0.892,0 0,-3.768 -1.191,0 0,-0.795 3.275,0 0,0.795 -1.192,0 z"
           style="fill:#ffffff" />
        <path
           id="path133"
           d="m 169.669,347.86 -0.891,-1.82 -0.641,0 0,1.82 -0.892,0 0,-4.562 1.788,0 c 0.23,0 0.438,0.037 0.622,0.111 0.184,0.074 0.34,0.176 0.468,0.301 0.129,0.127 0.226,0.273 0.291,0.443 0.066,0.168 0.1,0.35 0.1,0.541 0,0.162 -0.021,0.309 -0.066,0.436 -0.045,0.129 -0.106,0.242 -0.184,0.344 -0.076,0.1 -0.165,0.186 -0.266,0.256 -0.1,0.07 -0.206,0.125 -0.316,0.164 l 1.019,1.967 -1.032,0 z m -0.22,-3.603 c -0.117,-0.109 -0.275,-0.164 -0.471,-0.164 l -0.84,0 0,1.197 0.84,0 c 0.195,0 0.354,-0.055 0.471,-0.166 0.117,-0.109 0.176,-0.254 0.176,-0.434 0,-0.177 -0.059,-0.322 -0.176,-0.433 z"
           style="fill:#ffffff" />
        <path
           id="path135"
           d="m 171.767,347.86 0,-4.562 0.891,0 0,4.562 -0.891,0 z"
           style="fill:#ffffff" />
        <path
           id="path137"
           d="m 176.734,347.86 -0.27,-0.807 -1.621,0 -0.276,0.807 -0.929,0 1.66,-4.562 0.698,0 1.667,4.562 -0.929,0 z m -1.065,-3.216 -0.576,1.66 1.134,0 -0.558,-1.66 z"
           style="fill:#ffffff" />
        <path
           id="path139"
           d="m 178.639,347.86 0,-4.562 0.891,0 0,3.768 2.07,0 0,0.795 -2.961,0 z"
           style="fill:#ffffff" />
        <path
           id="path141"
           d="m 187.048,347.86 -0.27,-0.807 -1.621,0 -0.275,0.807 -0.93,0 1.66,-4.562 0.698,0 1.667,4.562 -0.929,0 z m -1.063,-3.216 -0.577,1.66 1.135,0 -0.558,-1.66 z"
           style="fill:#ffffff" />
        <path
           id="path143"
           d="m 191.376,347.86 -0.891,-1.82 -0.641,0 0,1.82 -0.891,0 0,-4.562 1.787,0 c 0.231,0 0.438,0.037 0.622,0.111 0.185,0.074 0.34,0.176 0.468,0.301 0.129,0.127 0.226,0.273 0.292,0.443 0.065,0.168 0.1,0.35 0.1,0.541 0,0.162 -0.022,0.309 -0.067,0.436 -0.045,0.129 -0.105,0.242 -0.184,0.344 -0.076,0.1 -0.165,0.186 -0.266,0.256 -0.1,0.07 -0.205,0.125 -0.316,0.164 l 1.02,1.967 -1.033,0 z m -0.22,-3.603 c -0.117,-0.109 -0.274,-0.164 -0.471,-0.164 l -0.84,0 0,1.197 0.84,0 c 0.196,0 0.354,-0.055 0.471,-0.166 0.117,-0.109 0.177,-0.254 0.177,-0.434 0,-0.177 -0.06,-0.322 -0.177,-0.433 z"
           style="fill:#ffffff" />
        <path
           id="path145"
           d="m 195.253,344.093 0,3.768 -0.891,0 0,-3.768 -1.193,0 0,-0.795 3.275,0 0,0.795 -1.191,0 z"
           style="fill:#ffffff" />
        <path
           id="path147"
           d="m 200.406,347.104 c -0.088,0.172 -0.208,0.314 -0.359,0.434 -0.152,0.117 -0.33,0.207 -0.535,0.268 -0.205,0.062 -0.428,0.094 -0.666,0.094 -0.347,0 -0.656,-0.043 -0.927,-0.131 -0.271,-0.088 -0.519,-0.246 -0.74,-0.473 l 0.577,-0.576 c 0.145,0.146 0.311,0.246 0.5,0.301 0.188,0.057 0.389,0.084 0.602,0.084 0.266,0 0.467,-0.049 0.604,-0.145 0.137,-0.096 0.205,-0.236 0.205,-0.42 0,-0.166 -0.048,-0.295 -0.142,-0.385 -0.048,-0.043 -0.099,-0.076 -0.157,-0.1 -0.058,-0.023 -0.141,-0.043 -0.246,-0.061 l -0.552,-0.076 c -0.389,-0.055 -0.684,-0.182 -0.884,-0.379 -0.219,-0.217 -0.328,-0.516 -0.328,-0.896 0,-0.205 0.037,-0.393 0.109,-0.561 0.073,-0.17 0.178,-0.314 0.314,-0.438 0.137,-0.121 0.303,-0.215 0.5,-0.285 0.196,-0.068 0.419,-0.102 0.666,-0.102 0.316,0 0.592,0.041 0.827,0.121 0.235,0.082 0.451,0.219 0.647,0.41 l -0.564,0.559 c -0.145,-0.137 -0.3,-0.223 -0.465,-0.26 -0.164,-0.037 -0.32,-0.055 -0.471,-0.055 -0.239,0 -0.416,0.057 -0.531,0.17 -0.116,0.113 -0.174,0.248 -0.174,0.406 0,0.061 0.011,0.119 0.032,0.174 0.021,0.055 0.056,0.107 0.103,0.154 0.047,0.043 0.105,0.08 0.176,0.111 0.071,0.033 0.153,0.055 0.248,0.068 l 0.537,0.076 c 0.21,0.029 0.383,0.074 0.52,0.131 0.137,0.059 0.254,0.133 0.353,0.223 0.124,0.115 0.214,0.254 0.27,0.416 0.056,0.162 0.083,0.346 0.083,0.551 -0.001,0.225 -0.044,0.421 -0.132,0.592 z"
           style="fill:#ffffff" />
        <path
           id="path149"
           d="m 206.375,347.86 -0.333,-0.396 c -0.051,0.043 -0.111,0.088 -0.18,0.137 -0.069,0.049 -0.149,0.098 -0.243,0.143 -0.095,0.045 -0.203,0.082 -0.327,0.111 -0.123,0.029 -0.268,0.045 -0.43,0.045 -0.504,0 -0.881,-0.123 -1.131,-0.369 -0.25,-0.246 -0.375,-0.584 -0.375,-1.016 0,-0.145 0.025,-0.279 0.074,-0.4 0.049,-0.121 0.111,-0.232 0.188,-0.334 0.077,-0.1 0.165,-0.191 0.263,-0.271 0.098,-0.082 0.197,-0.154 0.295,-0.219 -0.047,-0.051 -0.098,-0.111 -0.15,-0.18 -0.054,-0.068 -0.103,-0.141 -0.147,-0.221 -0.045,-0.078 -0.082,-0.166 -0.112,-0.26 -0.029,-0.094 -0.045,-0.195 -0.045,-0.307 0,-0.154 0.027,-0.297 0.083,-0.426 0.056,-0.131 0.136,-0.244 0.241,-0.338 0.104,-0.094 0.231,-0.168 0.381,-0.221 0.15,-0.053 0.32,-0.08 0.513,-0.08 0.18,0 0.341,0.027 0.484,0.08 0.143,0.053 0.266,0.129 0.368,0.225 0.102,0.096 0.181,0.211 0.234,0.342 0.053,0.133 0.08,0.277 0.08,0.43 0,0.18 -0.043,0.332 -0.129,0.455 -0.085,0.125 -0.198,0.238 -0.339,0.34 -0.005,0.004 -0.024,0.02 -0.058,0.045 -0.035,0.025 -0.078,0.059 -0.132,0.096 -0.054,0.039 -0.099,0.072 -0.138,0.098 l 0.77,0.91 c 0.072,-0.1 0.127,-0.217 0.163,-0.354 0.036,-0.137 0.059,-0.285 0.067,-0.449 l 0.788,0 c -0.017,0.295 -0.062,0.561 -0.134,0.795 -0.074,0.236 -0.191,0.443 -0.354,0.623 l 0.82,0.967 -1.055,0 z m -1.749,-2.05 c -0.137,0.098 -0.248,0.199 -0.334,0.301 -0.086,0.104 -0.128,0.236 -0.128,0.398 0,0.094 0.019,0.18 0.054,0.26 0.037,0.078 0.086,0.146 0.148,0.201 0.062,0.057 0.135,0.1 0.218,0.131 0.083,0.033 0.174,0.049 0.272,0.049 0.137,0 0.258,-0.021 0.361,-0.064 0.105,-0.043 0.211,-0.111 0.318,-0.205 l -0.909,-1.071 z m 0.592,-1.735 c -0.066,-0.07 -0.158,-0.105 -0.278,-0.105 -0.124,0 -0.218,0.035 -0.282,0.105 -0.064,0.072 -0.096,0.16 -0.096,0.268 0,0.084 0.029,0.168 0.09,0.25 0.06,0.08 0.131,0.168 0.211,0.262 0.035,-0.021 0.099,-0.064 0.193,-0.127 0.072,-0.053 0.134,-0.109 0.186,-0.17 0.051,-0.062 0.076,-0.135 0.076,-0.215 0,-0.108 -0.033,-0.196 -0.1,-0.268 z"
           style="fill:#ffffff" />
        <path
           id="path151"
           d="m 213.498,347.86 0,-2.66 -0.872,1.73 -0.603,0 -0.879,-1.73 0,2.66 -0.891,0 0,-4.562 0.879,0 1.191,2.467 1.186,-2.467 0.879,0 0,4.562 -0.89,0 z"
           style="fill:#ffffff" />
        <path
           id="path153"
           d="m 215.733,347.86 0,-4.562 3.006,0 0,0.795 -2.114,0 0,1.07 1.801,0 0,0.795 -1.801,0 0,1.107 2.114,0 0,0.795 -3.006,0 z"
           style="fill:#ffffff" />
        <path
           id="path155"
           d="m 221.786,344.093 0,3.768 -0.892,0 0,-3.768 -1.191,0 0,-0.795 3.275,0 0,0.795 -1.192,0 z"
           style="fill:#ffffff" />
        <path
           id="path157"
           d="m 226.47,347.86 0,-1.91 -1.545,0 0,1.91 -0.891,0 0,-4.562 0.891,0 0,1.865 1.545,0 0,-1.865 0.891,0 0,4.562 -0.891,0 z"
           style="fill:#ffffff" />
        <path
           id="path159"
           d="m 231.949,346.13 c -0.005,0.172 -0.021,0.332 -0.049,0.48 -0.027,0.15 -0.072,0.291 -0.135,0.42 -0.062,0.131 -0.15,0.254 -0.266,0.369 -0.162,0.162 -0.343,0.287 -0.541,0.371 -0.199,0.086 -0.43,0.129 -0.689,0.129 -0.261,0 -0.491,-0.043 -0.692,-0.129 -0.2,-0.084 -0.382,-0.209 -0.545,-0.371 -0.115,-0.115 -0.204,-0.238 -0.267,-0.369 -0.062,-0.129 -0.105,-0.27 -0.131,-0.42 -0.025,-0.148 -0.04,-0.309 -0.045,-0.48 -0.004,-0.17 -0.006,-0.354 -0.006,-0.551 0,-0.197 0.002,-0.381 0.006,-0.551 0.005,-0.172 0.02,-0.332 0.045,-0.48 0.025,-0.15 0.069,-0.291 0.131,-0.42 0.062,-0.131 0.151,-0.254 0.267,-0.369 0.163,-0.162 0.345,-0.287 0.545,-0.371 0.201,-0.086 0.432,-0.129 0.692,-0.129 0.26,0 0.49,0.043 0.689,0.129 0.198,0.084 0.379,0.209 0.541,0.371 0.115,0.115 0.204,0.238 0.266,0.369 0.062,0.129 0.107,0.27 0.135,0.42 0.027,0.148 0.044,0.309 0.049,0.48 0.004,0.17 0.006,0.354 0.006,0.551 0,0.197 -0.002,0.381 -0.006,0.551 z m -0.895,-1.092 c -0.007,-0.145 -0.019,-0.262 -0.035,-0.357 -0.018,-0.094 -0.041,-0.17 -0.07,-0.227 -0.03,-0.059 -0.066,-0.109 -0.109,-0.156 -0.064,-0.074 -0.145,-0.133 -0.24,-0.178 -0.095,-0.045 -0.207,-0.066 -0.33,-0.066 -0.124,0 -0.235,0.021 -0.334,0.066 -0.098,0.045 -0.179,0.104 -0.242,0.178 -0.044,0.047 -0.078,0.098 -0.107,0.156 -0.027,0.057 -0.05,0.133 -0.066,0.227 -0.018,0.096 -0.029,0.213 -0.035,0.357 -0.006,0.143 -0.01,0.322 -0.01,0.541 0,0.217 0.004,0.398 0.01,0.541 0.006,0.145 0.018,0.262 0.035,0.355 0.017,0.096 0.039,0.17 0.066,0.229 0.029,0.057 0.063,0.109 0.107,0.156 0.063,0.072 0.145,0.133 0.242,0.178 0.099,0.045 0.21,0.066 0.334,0.066 0.123,0 0.234,-0.021 0.33,-0.066 0.096,-0.045 0.176,-0.105 0.24,-0.178 0.043,-0.047 0.079,-0.1 0.109,-0.156 0.029,-0.059 0.053,-0.133 0.07,-0.229 0.017,-0.094 0.028,-0.211 0.035,-0.355 0.006,-0.143 0.01,-0.324 0.01,-0.541 0,-0.219 -0.004,-0.398 -0.01,-0.541 z"
           style="fill:#ffffff" />
        <path
           id="path161"
           d="m 236.482,346.073 c 0,0.166 -0.013,0.328 -0.038,0.486 -0.025,0.158 -0.071,0.311 -0.135,0.455 -0.064,0.144 -0.159,0.281 -0.288,0.41 -0.149,0.15 -0.328,0.26 -0.535,0.33 -0.207,0.07 -0.431,0.105 -0.67,0.105 l -1.647,0 0,-4.562 1.647,0 c 0.239,0 0.463,0.035 0.67,0.105 0.207,0.07 0.386,0.18 0.535,0.33 0.129,0.127 0.225,0.262 0.288,0.404 0.063,0.141 0.109,0.287 0.135,0.441 0.026,0.154 0.038,0.314 0.038,0.48 0,0.162 0,0.33 0,0.5 0,0.174 0,0.344 0,0.516 z m -0.897,-0.959 c -0.004,-0.125 -0.014,-0.236 -0.025,-0.33 -0.014,-0.094 -0.033,-0.174 -0.059,-0.236 -0.025,-0.064 -0.06,-0.123 -0.103,-0.174 -0.077,-0.094 -0.169,-0.164 -0.276,-0.211 -0.105,-0.047 -0.236,-0.07 -0.391,-0.07 l -0.672,0 0,2.973 0.672,0 c 0.154,0 0.285,-0.023 0.391,-0.07 0.107,-0.047 0.199,-0.117 0.276,-0.211 0.081,-0.104 0.134,-0.246 0.157,-0.43 0.023,-0.184 0.035,-0.449 0.035,-0.795 0.001,-0.17 -0.001,-0.319 -0.005,-0.446 z"
           style="fill:#ffffff" />
      </g>
      <g
         id="g163">
        <path
           id="path165"
           d="m 147.564,303.017 c -0.15,0.27 -0.336,0.496 -0.559,0.679 -0.221,0.183 -0.473,0.32 -0.756,0.41 -0.282,0.09 -0.581,0.135 -0.896,0.135 -0.379,0 -0.721,-0.064 -1.026,-0.193 -0.305,-0.128 -0.579,-0.314 -0.822,-0.559 -0.174,-0.173 -0.308,-0.358 -0.4,-0.554 -0.094,-0.196 -0.159,-0.406 -0.197,-0.631 -0.039,-0.225 -0.062,-0.465 -0.068,-0.723 -0.006,-0.257 -0.009,-0.533 -0.009,-0.828 0,-0.295 0.003,-0.571 0.009,-0.829 0.007,-0.256 0.029,-0.497 0.068,-0.722 0.038,-0.225 0.104,-0.435 0.197,-0.631 0.093,-0.196 0.227,-0.38 0.4,-0.554 0.243,-0.244 0.518,-0.43 0.822,-0.559 0.306,-0.128 0.647,-0.192 1.026,-0.192 0.321,0 0.622,0.045 0.901,0.135 0.279,0.09 0.529,0.227 0.75,0.409 0.223,0.183 0.408,0.41 0.559,0.679 0.151,0.27 0.256,0.584 0.313,0.944 l -1.358,0 c -0.07,-0.276 -0.195,-0.507 -0.375,-0.694 -0.18,-0.186 -0.44,-0.279 -0.78,-0.279 -0.187,0 -0.352,0.032 -0.496,0.097 -0.145,0.064 -0.265,0.151 -0.361,0.26 -0.064,0.071 -0.118,0.149 -0.163,0.236 -0.046,0.087 -0.081,0.201 -0.106,0.342 -0.026,0.142 -0.044,0.321 -0.054,0.54 -0.009,0.219 -0.014,0.491 -0.014,0.819 0,0.328 0.005,0.601 0.014,0.819 0.01,0.218 0.027,0.398 0.054,0.539 0.025,0.142 0.061,0.255 0.106,0.342 0.045,0.087 0.099,0.166 0.163,0.236 0.097,0.109 0.217,0.196 0.361,0.26 0.145,0.064 0.31,0.096 0.496,0.096 0.34,0 0.601,-0.093 0.78,-0.279 0.179,-0.186 0.305,-0.417 0.375,-0.694 l 1.358,0 c -0.056,0.36 -0.161,0.674 -0.312,0.944 z"
           style="fill:#ffffff" />
        <path
           id="path167"
           d="m 154.163,301.582 c -0.007,0.257 -0.03,0.498 -0.072,0.723 -0.042,0.225 -0.109,0.435 -0.202,0.631 -0.094,0.196 -0.227,0.38 -0.4,0.554 -0.244,0.244 -0.516,0.431 -0.813,0.559 -0.299,0.129 -0.644,0.193 -1.035,0.193 -0.391,0 -0.739,-0.064 -1.04,-0.193 -0.303,-0.128 -0.576,-0.314 -0.819,-0.559 -0.173,-0.173 -0.307,-0.358 -0.399,-0.554 -0.094,-0.196 -0.159,-0.406 -0.197,-0.631 -0.039,-0.225 -0.062,-0.465 -0.068,-0.723 -0.006,-0.257 -0.01,-0.533 -0.01,-0.828 0,-0.295 0.004,-0.571 0.01,-0.829 0.007,-0.256 0.029,-0.497 0.068,-0.722 0.038,-0.225 0.104,-0.435 0.197,-0.631 0.093,-0.196 0.227,-0.38 0.399,-0.554 0.243,-0.244 0.517,-0.43 0.819,-0.559 0.301,-0.128 0.648,-0.192 1.04,-0.192 0.392,0 0.736,0.064 1.035,0.192 0.298,0.129 0.569,0.315 0.813,0.559 0.174,0.173 0.307,0.358 0.4,0.554 0.093,0.196 0.16,0.406 0.202,0.631 0.042,0.225 0.065,0.466 0.072,0.722 0.006,0.257 0.009,0.533 0.009,0.829 0,0.296 -0.004,0.571 -0.009,0.828 z m -1.344,-1.643 c -0.01,-0.215 -0.027,-0.393 -0.054,-0.535 -0.025,-0.141 -0.061,-0.255 -0.105,-0.342 -0.044,-0.087 -0.1,-0.165 -0.164,-0.236 -0.096,-0.109 -0.217,-0.198 -0.361,-0.265 -0.144,-0.067 -0.31,-0.101 -0.495,-0.101 -0.187,0 -0.354,0.034 -0.501,0.101 -0.148,0.067 -0.27,0.156 -0.366,0.265 -0.064,0.071 -0.118,0.149 -0.159,0.236 -0.041,0.087 -0.075,0.201 -0.102,0.342 -0.025,0.142 -0.043,0.32 -0.053,0.535 -0.01,0.215 -0.014,0.486 -0.014,0.814 0,0.328 0.004,0.599 0.014,0.814 0.01,0.215 0.027,0.393 0.053,0.535 0.026,0.141 0.061,0.255 0.102,0.342 0.041,0.087 0.095,0.166 0.159,0.236 0.097,0.109 0.218,0.198 0.366,0.265 0.146,0.067 0.314,0.101 0.501,0.101 0.186,0 0.351,-0.034 0.495,-0.101 0.144,-0.067 0.266,-0.156 0.361,-0.265 0.064,-0.07 0.119,-0.149 0.164,-0.236 0.045,-0.087 0.08,-0.201 0.105,-0.342 0.026,-0.142 0.044,-0.319 0.054,-0.535 0.009,-0.215 0.015,-0.486 0.015,-0.814 0,-0.328 -0.006,-0.598 -0.015,-0.814 z"
           style="fill:#ffffff" />
        <path
           id="path169"
           d="m 155.732,304.182 0,-6.858 1.34,0 0,5.664 3.11,0 0,1.194 -4.45,0 z"
           style="fill:#ffffff" />
        <path
           id="path171"
           d="m 161.505,304.182 0,-6.858 1.34,0 0,5.664 3.11,0 0,1.194 -4.45,0 z"
           style="fill:#ffffff" />
        <path
           id="path173"
           d="m 167.279,304.182 0,-6.858 4.518,0 0,1.194 -3.178,0 0,1.609 2.705,0 0,1.194 -2.705,0 0,1.666 3.178,0 0,1.194 -4.518,0 z"
           style="fill:#ffffff" />
        <path
           id="path175"
           d="m 177.979,302.594 c -0.1,0.325 -0.269,0.613 -0.505,0.864 -0.277,0.29 -0.577,0.493 -0.901,0.608 -0.324,0.115 -0.669,0.174 -1.035,0.174 -0.379,0 -0.722,-0.064 -1.026,-0.193 -0.305,-0.128 -0.579,-0.314 -0.822,-0.559 -0.174,-0.173 -0.308,-0.358 -0.4,-0.554 -0.094,-0.196 -0.159,-0.406 -0.197,-0.631 -0.039,-0.225 -0.062,-0.465 -0.068,-0.723 -0.006,-0.257 -0.01,-0.533 -0.01,-0.828 0,-0.295 0.004,-0.571 0.01,-0.829 0.007,-0.256 0.029,-0.497 0.068,-0.722 0.038,-0.225 0.104,-0.435 0.197,-0.631 0.093,-0.196 0.227,-0.38 0.4,-0.554 0.243,-0.244 0.516,-0.43 0.818,-0.559 0.301,-0.128 0.645,-0.192 1.03,-0.192 0.397,0 0.748,0.061 1.05,0.183 0.302,0.122 0.559,0.284 0.771,0.486 0.212,0.202 0.38,0.435 0.506,0.698 0.125,0.264 0.21,0.54 0.255,0.829 l -1.348,0 c -0.078,-0.328 -0.216,-0.576 -0.415,-0.747 -0.199,-0.17 -0.472,-0.255 -0.818,-0.255 -0.187,0 -0.353,0.034 -0.496,0.101 -0.145,0.067 -0.265,0.156 -0.361,0.265 -0.064,0.071 -0.117,0.149 -0.159,0.236 -0.041,0.087 -0.075,0.201 -0.101,0.342 -0.026,0.142 -0.044,0.32 -0.054,0.535 -0.01,0.215 -0.014,0.486 -0.014,0.814 0,0.328 0.004,0.601 0.014,0.819 0.01,0.218 0.027,0.398 0.054,0.539 0.025,0.142 0.06,0.255 0.101,0.342 0.042,0.087 0.095,0.166 0.159,0.236 0.097,0.109 0.217,0.196 0.361,0.26 0.144,0.064 0.31,0.096 0.496,0.096 0.206,0 0.388,-0.034 0.549,-0.101 0.161,-0.067 0.296,-0.162 0.405,-0.284 0.108,-0.128 0.188,-0.268 0.235,-0.419 0.047,-0.151 0.072,-0.316 0.072,-0.496 l 0,-0.26 -1.262,0 0,-1.127 2.591,0 0,1.004 c -0.001,0.497 -0.05,0.908 -0.15,1.233 z"
           style="fill:#ffffff" />
        <path
           id="path177"
           d="m 179.67,304.182 0,-6.858 4.517,0 0,1.194 -3.178,0 0,1.609 2.707,0 0,1.194 -2.707,0 0,1.666 3.178,0 0,1.194 -4.517,0 z"
           style="fill:#ffffff" />
        <path
           id="path179"
           d="m 193.04,301.582 c -0.007,0.257 -0.03,0.498 -0.072,0.723 -0.042,0.225 -0.108,0.435 -0.202,0.631 -0.094,0.196 -0.227,0.38 -0.4,0.554 -0.244,0.244 -0.515,0.431 -0.812,0.559 -0.299,0.129 -0.645,0.193 -1.036,0.193 -0.391,0 -0.739,-0.064 -1.04,-0.193 -0.303,-0.128 -0.574,-0.314 -0.819,-0.559 -0.173,-0.173 -0.307,-0.358 -0.399,-0.554 -0.094,-0.196 -0.159,-0.406 -0.197,-0.631 -0.039,-0.225 -0.062,-0.465 -0.067,-0.723 -0.007,-0.257 -0.01,-0.533 -0.01,-0.828 0,-0.295 0.003,-0.571 0.01,-0.829 0.006,-0.256 0.028,-0.497 0.067,-0.722 0.038,-0.225 0.104,-0.435 0.197,-0.631 0.093,-0.196 0.227,-0.38 0.399,-0.554 0.245,-0.244 0.517,-0.43 0.819,-0.559 0.301,-0.128 0.648,-0.192 1.04,-0.192 0.392,0 0.737,0.064 1.036,0.192 0.298,0.129 0.568,0.315 0.812,0.559 0.174,0.173 0.307,0.358 0.4,0.554 0.093,0.196 0.16,0.406 0.202,0.631 0.042,0.225 0.065,0.466 0.072,0.722 0.007,0.257 0.01,0.533 0.01,0.829 0,0.296 -0.004,0.571 -0.01,0.828 z m -1.344,-1.643 c -0.009,-0.215 -0.027,-0.393 -0.053,-0.535 -0.026,-0.141 -0.062,-0.255 -0.106,-0.342 -0.044,-0.087 -0.1,-0.165 -0.164,-0.236 -0.096,-0.109 -0.216,-0.198 -0.36,-0.265 -0.144,-0.067 -0.31,-0.101 -0.496,-0.101 -0.186,0 -0.353,0.034 -0.501,0.101 -0.148,0.067 -0.27,0.156 -0.366,0.265 -0.063,0.071 -0.116,0.149 -0.159,0.236 -0.041,0.087 -0.074,0.201 -0.102,0.342 -0.025,0.142 -0.043,0.32 -0.053,0.535 -0.01,0.215 -0.014,0.486 -0.014,0.814 0,0.328 0.004,0.599 0.014,0.814 0.01,0.215 0.027,0.393 0.053,0.535 0.027,0.141 0.061,0.255 0.102,0.342 0.043,0.087 0.096,0.166 0.159,0.236 0.097,0.109 0.218,0.198 0.366,0.265 0.148,0.067 0.314,0.101 0.501,0.101 0.187,0 0.352,-0.034 0.496,-0.101 0.144,-0.067 0.265,-0.156 0.36,-0.265 0.064,-0.07 0.119,-0.149 0.164,-0.236 0.045,-0.087 0.08,-0.201 0.106,-0.342 0.025,-0.142 0.044,-0.319 0.053,-0.535 0.01,-0.215 0.015,-0.486 0.015,-0.814 0,-0.328 -0.005,-0.598 -0.015,-0.814 z"
           style="fill:#ffffff" />
        <path
           id="path181"
           d="m 195.949,298.519 0,1.686 2.706,0 0,1.194 -2.706,0 0,2.783 -1.34,0 0,-6.858 4.518,0 0,1.194 -3.178,0 z"
           style="fill:#ffffff" />
        <path
           id="path183"
           d="m 207.988,301.495 c 0,0.25 -0.019,0.495 -0.058,0.732 -0.038,0.238 -0.106,0.466 -0.202,0.684 -0.096,0.218 -0.24,0.424 -0.434,0.616 -0.225,0.225 -0.492,0.39 -0.805,0.496 -0.311,0.106 -0.646,0.159 -1.006,0.159 l -2.476,0 0,-6.858 2.476,0 c 0.359,0 0.695,0.053 1.006,0.159 0.312,0.106 0.58,0.271 0.805,0.496 0.193,0.193 0.338,0.395 0.434,0.606 0.096,0.212 0.164,0.434 0.202,0.665 0.039,0.231 0.058,0.472 0.058,0.722 0,0.244 0,0.495 0,0.751 0,0.256 0,0.515 0,0.772 z m -1.348,-1.44 c -0.007,-0.189 -0.02,-0.355 -0.039,-0.496 -0.019,-0.141 -0.048,-0.26 -0.086,-0.356 -0.039,-0.096 -0.091,-0.183 -0.154,-0.26 -0.116,-0.142 -0.254,-0.247 -0.414,-0.318 -0.162,-0.07 -0.357,-0.106 -0.588,-0.106 l -1.012,0 0,4.469 1.012,0 c 0.23,0 0.426,-0.035 0.588,-0.106 0.16,-0.07 0.298,-0.176 0.414,-0.317 0.121,-0.154 0.2,-0.37 0.236,-0.646 0.035,-0.276 0.053,-0.674 0.053,-1.194 0,-0.257 -0.004,-0.48 -0.01,-0.67 z"
           style="fill:#ffffff" />
        <path
           id="path185"
           d="m 209.556,304.182 0,-6.858 4.518,0 0,1.194 -3.178,0 0,1.609 2.705,0 0,1.194 -2.705,0 0,1.666 3.178,0 0,1.194 -4.518,0 z"
           style="fill:#ffffff" />
        <path
           id="path187"
           d="m 220.057,303.046 c -0.132,0.257 -0.312,0.474 -0.54,0.65 -0.228,0.177 -0.496,0.312 -0.804,0.405 -0.309,0.093 -0.643,0.14 -1.002,0.14 -0.521,0 -0.983,-0.066 -1.392,-0.198 -0.408,-0.131 -0.779,-0.367 -1.113,-0.708 l 0.867,-0.867 c 0.219,0.218 0.469,0.37 0.752,0.453 0.282,0.084 0.584,0.125 0.904,0.125 0.398,0 0.701,-0.072 0.906,-0.217 0.205,-0.145 0.309,-0.354 0.309,-0.631 0,-0.25 -0.071,-0.443 -0.213,-0.578 -0.07,-0.064 -0.148,-0.114 -0.235,-0.149 -0.087,-0.036 -0.211,-0.066 -0.37,-0.092 l -0.829,-0.115 c -0.584,-0.084 -1.027,-0.273 -1.329,-0.568 -0.328,-0.328 -0.491,-0.777 -0.491,-1.349 0,-0.308 0.054,-0.589 0.163,-0.843 0.109,-0.254 0.268,-0.472 0.473,-0.655 0.205,-0.183 0.455,-0.326 0.751,-0.428 0.296,-0.103 0.63,-0.154 1.002,-0.154 0.476,0 0.89,0.061 1.243,0.183 0.353,0.122 0.676,0.328 0.973,0.617 l -0.848,0.838 c -0.219,-0.206 -0.451,-0.336 -0.699,-0.39 -0.246,-0.055 -0.482,-0.082 -0.707,-0.082 -0.359,0 -0.627,0.085 -0.8,0.255 -0.173,0.17 -0.261,0.374 -0.261,0.611 0,0.09 0.016,0.177 0.049,0.26 0.031,0.083 0.084,0.161 0.154,0.231 0.07,0.064 0.158,0.121 0.265,0.169 0.106,0.048 0.229,0.082 0.371,0.101 l 0.81,0.115 c 0.314,0.045 0.574,0.111 0.779,0.198 0.205,0.086 0.383,0.197 0.529,0.332 0.187,0.174 0.321,0.382 0.405,0.626 0.083,0.244 0.126,0.521 0.126,0.829 0,0.334 -0.066,0.629 -0.198,0.886 z"
           style="fill:#ffffff" />
        <path
           id="path189"
           d="m 221.668,304.182 0,-6.858 1.339,0 0,6.858 -1.339,0 z"
           style="fill:#ffffff" />
        <path
           id="path191"
           d="m 229.551,302.594 c -0.1,0.325 -0.269,0.613 -0.507,0.864 -0.275,0.29 -0.575,0.493 -0.9,0.608 -0.324,0.116 -0.669,0.174 -1.035,0.174 -0.379,0 -0.721,-0.064 -1.025,-0.193 -0.305,-0.128 -0.58,-0.314 -0.824,-0.559 -0.173,-0.173 -0.307,-0.358 -0.398,-0.554 -0.094,-0.196 -0.16,-0.406 -0.198,-0.631 -0.038,-0.225 -0.062,-0.465 -0.067,-0.723 -0.006,-0.257 -0.01,-0.533 -0.01,-0.828 0,-0.295 0.004,-0.571 0.01,-0.829 0.006,-0.256 0.029,-0.497 0.067,-0.722 0.038,-0.225 0.104,-0.435 0.198,-0.631 0.092,-0.196 0.226,-0.38 0.398,-0.554 0.244,-0.244 0.518,-0.43 0.819,-0.559 0.302,-0.128 0.646,-0.192 1.03,-0.192 0.398,0 0.748,0.061 1.051,0.183 0.301,0.122 0.559,0.284 0.77,0.486 0.213,0.202 0.381,0.435 0.506,0.698 0.125,0.264 0.211,0.54 0.256,0.829 l -1.349,0 c -0.077,-0.328 -0.216,-0.576 -0.415,-0.747 -0.199,-0.17 -0.471,-0.255 -0.818,-0.255 -0.186,0 -0.352,0.034 -0.496,0.101 -0.144,0.067 -0.264,0.156 -0.361,0.265 -0.064,0.071 -0.117,0.149 -0.158,0.236 -0.042,0.087 -0.076,0.201 -0.102,0.342 -0.025,0.142 -0.043,0.32 -0.053,0.535 -0.01,0.215 -0.015,0.486 -0.015,0.814 0,0.328 0.005,0.601 0.015,0.819 0.01,0.218 0.027,0.398 0.053,0.539 0.025,0.142 0.06,0.255 0.102,0.342 0.041,0.087 0.094,0.166 0.158,0.236 0.098,0.109 0.217,0.196 0.361,0.26 0.145,0.064 0.311,0.096 0.496,0.096 0.205,0 0.389,-0.034 0.55,-0.101 0.16,-0.067 0.295,-0.162 0.404,-0.284 0.108,-0.128 0.188,-0.268 0.235,-0.419 0.049,-0.151 0.072,-0.316 0.072,-0.496 l 0,-0.26 -1.262,0 0,-1.127 2.592,0 0,1.004 c 0,0.497 -0.051,0.908 -0.15,1.233 z"
           style="fill:#ffffff" />
        <path
           id="path193"
           d="m 235.297,304.182 -2.716,-4.209 0,4.209 -1.339,0 0,-6.858 1.194,0 2.716,4.2 0,-4.2 1.339,0 0,6.858 -1.194,0 z"
           style="fill:#ffffff" />
      </g>
    </g>
  </g>
</svg>
