<?xml version="1.0" encoding="UTF-8" standalone="no"?>
<svg
   xmlns:dc="http://purl.org/dc/elements/1.1/"
   xmlns:cc="http://creativecommons.org/ns#"
   xmlns:rdf="http://www.w3.org/1999/02/22-rdf-syntax-ns#"
   xmlns:svg="http://www.w3.org/2000/svg"
   xmlns="http://www.w3.org/2000/svg"
   xmlns:sodipodi="http://sodipodi.sourceforge.net/DTD/sodipodi-0.dtd"
   xmlns:inkscape="http://www.inkscape.org/namespaces/inkscape"
   viewBox="0 0 525 525"
   height="525"
   width="525"
   xml:space="preserve"
   id="svg2"
   version="1.1"
   sodipodi:docname="miami-logo.svg"
   inkscape:version="0.92.0 r"
   inkscape:export-filename="/home/walter/WWW/www-mcd/images/MIAMI-ICON-BLUE2.png"
   inkscape:export-xdpi="150"
   inkscape:export-ydpi="150"><sodipodi:namedview
     pagecolor="#ffffff"
     bordercolor="#666666"
     borderopacity="1"
     objecttolerance="10"
     gridtolerance="10"
     guidetolerance="10"
     inkscape:pageopacity="0"
     inkscape:pageshadow="2"
     inkscape:window-width="1920"
     inkscape:window-height="1016"
     id="namedview62"
     showgrid="false"
     inkscape:zoom="0.28921569"
     inkscape:cx="541.83051"
     inkscape:cy="394.16949"
     inkscape:window-x="0"
     inkscape:window-y="27"
     inkscape:window-maximized="1"
     inkscape:current-layer="svg2" /><metadata
     id="metadata8"><rdf:RDF><cc:Work
         rdf:about=""><dc:format>image/svg+xml</dc:format><dc:type
           rdf:resource="http://purl.org/dc/dcmitype/StillImage" /><dc:title></dc:title></cc:Work></rdf:RDF></metadata><defs
     id="defs6"><clipPath
       id="clipPath34"
       clipPathUnits="userSpaceOnUse"><path
         id="path32"
         d="M 0,612 H 792 V 0 H 0 Z"
         inkscape:connector-curvature="0" /></clipPath></defs><g
     transform="matrix(1.3333333,0,0,-1.3333333,-264.41952,721.57286)"
     id="g10"><g
       transform="translate(230.6929,148.8264)"
       id="g12"><path
         id="path14"
         style="fill:#231f20;fill-opacity:1;fill-rule:nonzero;stroke:none"
         d="M 0,0 V 12.01 L -3.935,4.197 h -2.719 l -3.964,7.813 V 0 h -4.022 v 20.606 h 3.964 L -5.294,9.463 0.058,20.606 H 4.022 V 0 Z"
         inkscape:connector-curvature="0" /></g><path
       id="path16"
       style="fill:#231f20;fill-opacity:1;fill-rule:nonzero;stroke:none"
       d="m 239.518,169.432 h 4.021 v -20.606 h -4.021 z"
       inkscape:connector-curvature="0" /><g
       transform="translate(255.2567,163.3549)"
       id="g18"><path
         id="path20"
         style="fill:#231f20;fill-opacity:1;fill-rule:nonzero;stroke:none"
         d="m 0,0 -2.604,-7.496 h 5.121 z m 4.803,-14.528 -1.215,3.646 h -7.32 l -1.244,-3.646 h -4.196 l 7.494,20.605 h 3.154 l 7.522,-20.605 z"
         inkscape:connector-curvature="0" /></g><g
       transform="translate(281.4408,148.8264)"
       id="g22"><path
         id="path24"
         style="fill:#231f20;fill-opacity:1;fill-rule:nonzero;stroke:none"
         d="M 0,0 V 12.01 L -3.935,4.197 h -2.719 l -3.964,7.813 V 0 h -4.022 v 20.606 h 3.964 L -5.294,9.463 0.058,20.606 H 4.022 V 0 Z"
         inkscape:connector-curvature="0" /></g><path
       id="path26"
       style="fill:#231f20;fill-opacity:1;fill-rule:nonzero;stroke:none"
       d="m 290.265,169.432 h 4.021 v -20.606 h -4.021 z"
       inkscape:connector-curvature="0" /><g
       id="g28"><g
         clip-path="url(#clipPath34)"
         id="g30"><g
           transform="translate(312.6883,148.6525)"
           id="g36"><path
             id="path38"
             style="fill:#231f20;fill-opacity:1;fill-rule:nonzero;stroke:none"
             d="m 0,0 c -2.257,0 -4.108,0.811 -5.555,2.258 -2.083,2.083 -2.025,4.659 -2.025,8.218 0,3.56 -0.058,6.136 2.025,8.22 1.447,1.447 3.298,2.257 5.555,2.257 3.848,0 6.858,-2.199 7.581,-6.512 h -4.08 c -0.405,1.65 -1.447,2.923 -3.472,2.923 -1.099,0 -1.996,-0.405 -2.575,-1.07 -0.781,-0.869 -1.012,-1.853 -1.012,-5.818 0,-3.964 0.231,-4.948 1.012,-5.816 0.579,-0.666 1.476,-1.071 2.575,-1.071 2.025,0 3.067,1.273 3.472,2.923 h 4.08 C 6.858,2.2 3.819,0 0,0"
             inkscape:connector-curvature="0" /></g><g
           transform="translate(333.2307,164.9179)"
           id="g40"><path
             id="path42"
             style="fill:#231f20;fill-opacity:1;fill-rule:nonzero;stroke:none"
             d="m 0,0 c -0.579,0.665 -1.476,1.099 -2.575,1.099 -1.1,0 -2.026,-0.434 -2.604,-1.099 -0.782,-0.868 -0.984,-1.824 -0.984,-5.789 0,-3.964 0.202,-4.92 0.984,-5.787 0.578,-0.666 1.504,-1.1 2.604,-1.1 1.099,0 1.996,0.434 2.575,1.1 0.781,0.867 1.013,1.823 1.013,5.787 C 1.013,-1.824 0.781,-0.868 0,0 m 2.98,-14.008 c -1.447,-1.447 -3.211,-2.257 -5.555,-2.257 -2.344,0 -4.138,0.81 -5.584,2.257 -2.084,2.084 -2.026,4.66 -2.026,8.219 0,3.56 -0.058,6.136 2.026,8.22 1.446,1.446 3.24,2.257 5.584,2.257 2.344,0 4.108,-0.811 5.555,-2.257 2.083,-2.084 2.054,-4.66 2.054,-8.22 0,-3.559 0.029,-6.135 -2.054,-8.219"
             inkscape:connector-curvature="0" /></g><g
           transform="translate(342.3732,148.8264)"
           id="g44"><path
             id="path46"
             style="fill:#231f20;fill-opacity:1;fill-rule:nonzero;stroke:none"
             d="M 0,0 V 20.606 H 4.022 V 3.589 h 9.345 V 0 Z"
             inkscape:connector-curvature="0" /></g><g
           transform="translate(359.0095,148.8264)"
           id="g48"><path
             id="path50"
             style="fill:#231f20;fill-opacity:1;fill-rule:nonzero;stroke:none"
             d="M 0,0 V 20.606 H 4.022 V 3.589 h 9.345 V 0 Z"
             inkscape:connector-curvature="0" /></g><g
           transform="translate(375.6458,148.8264)"
           id="g52"><path
             id="path54"
             style="fill:#231f20;fill-opacity:1;fill-rule:nonzero;stroke:none"
             d="M 0,0 V 20.606 H 13.57 V 17.018 H 4.022 v -4.834 h 8.13 V 8.596 H 4.022 V 3.589 H 13.57 V 0 Z"
             inkscape:connector-curvature="0" /></g><g
           transform="translate(405.8517,150.9971)"
           id="g56"><path
             id="path58"
             style="fill:#231f20;fill-opacity:1;fill-rule:nonzero;stroke:none"
             d="m 0,0 c -1.649,-1.708 -3.617,-2.345 -5.815,-2.345 -2.257,0 -4.109,0.811 -5.556,2.258 -2.083,2.084 -2.025,4.66 -2.025,8.219 0,3.56 -0.058,6.136 2.025,8.219 1.447,1.447 3.241,2.258 5.556,2.258 4.774,0 7.204,-3.126 7.754,-6.599 h -4.051 c -0.463,1.939 -1.649,3.01 -3.703,3.01 -1.1,0 -1.997,-0.434 -2.575,-1.099 -0.782,-0.869 -0.984,-1.824 -0.984,-5.789 0,-3.965 0.202,-4.948 0.984,-5.817 0.578,-0.666 1.475,-1.07 2.575,-1.07 1.215,0 2.198,0.433 2.864,1.157 0.666,0.752 0.926,1.679 0.926,2.749 v 0.782 h -3.79 V 9.29 H 1.968 V 6.28 C 1.968,3.299 1.447,1.504 0,0"
             inkscape:connector-curvature="0" /></g><g
           transform="translate(411.8991,148.8264)"
           id="g60"><path
             id="path62"
             style="fill:#231f20;fill-opacity:1;fill-rule:nonzero;stroke:none"
             d="M 0,0 V 20.606 H 13.57 V 17.018 H 4.021 v -4.834 h 8.131 V 8.596 H 4.021 V 3.589 H 13.57 V 0 Z"
             inkscape:connector-curvature="0" /></g><g
           transform="translate(445.6053,164.9179)"
           id="g64"><path
             id="path66"
             style="fill:#231f20;fill-opacity:1;fill-rule:nonzero;stroke:none"
             d="M 0,0 C -0.578,0.665 -1.476,1.099 -2.575,1.099 -3.674,1.099 -4.6,0.665 -5.179,0 c -0.782,-0.868 -0.984,-1.824 -0.984,-5.789 0,-3.964 0.202,-4.92 0.984,-5.787 0.579,-0.666 1.505,-1.1 2.604,-1.1 1.099,0 1.997,0.434 2.575,1.1 0.781,0.867 1.013,1.823 1.013,5.787 C 1.013,-1.824 0.781,-0.868 0,0 m 2.98,-14.008 c -1.447,-1.447 -3.211,-2.257 -5.555,-2.257 -2.343,0 -4.138,0.81 -5.584,2.257 -2.083,2.084 -2.026,4.66 -2.026,8.219 0,3.56 -0.057,6.136 2.026,8.22 1.446,1.446 3.241,2.257 5.584,2.257 2.344,0 4.108,-0.811 5.555,-2.257 2.083,-2.084 2.055,-4.66 2.055,-8.22 0,-3.559 0.028,-6.135 -2.055,-8.219"
             inkscape:connector-curvature="0" /></g><g
           transform="translate(458.7696,165.844)"
           id="g68"><path
             id="path70"
             style="fill:#231f20;fill-opacity:1;fill-rule:nonzero;stroke:none"
             d="M 0,0 V -5.065 H 8.131 V -8.653 H 0 v -8.365 H -4.022 V 3.588 H 9.548 V 0 Z"
             inkscape:connector-curvature="0" /></g><g
           transform="translate(488.5995,164.5701)"
           id="g72"><path
             id="path74"
             style="fill:#231f20;fill-opacity:1;fill-rule:nonzero;stroke:none"
             d="m 0,0 c -0.694,0.839 -1.62,1.274 -3.009,1.274 h -3.038 v -13.429 h 3.038 c 1.389,0 2.315,0.434 3.009,1.273 0.752,0.926 0.867,2.403 0.867,5.528 C 0.867,-2.228 0.752,-0.926 0,0 m 2.806,-13.776 c -1.36,-1.36 -3.298,-1.968 -5.439,-1.968 h -7.436 V 4.862 h 7.436 c 2.141,0 4.079,-0.608 5.439,-1.968 2.315,-2.316 2.083,-5.152 2.083,-8.248 0,-3.096 0.232,-6.107 -2.083,-8.422"
             inkscape:connector-curvature="0" /></g><g
           transform="translate(497.5974,148.8264)"
           id="g76"><path
             id="path78"
             style="fill:#231f20;fill-opacity:1;fill-rule:nonzero;stroke:none"
             d="M 0,0 V 20.606 H 13.57 V 17.018 H 4.021 v -4.834 h 8.131 V 8.596 H 4.021 V 3.589 H 13.57 V 0 Z"
             inkscape:connector-curvature="0" /></g><g
           transform="translate(520.7724,148.6525)"
           id="g80"><path
             id="path82"
             style="fill:#231f20;fill-opacity:1;fill-rule:nonzero;stroke:none"
             d="m 0,0 c -3.124,0 -5.498,0.666 -7.522,2.721 l 2.604,2.604 c 1.301,-1.302 3.066,-1.736 4.976,-1.736 2.373,0 3.645,0.897 3.645,2.547 0,0.723 -0.202,1.331 -0.636,1.736 C 2.662,8.248 2.199,8.451 1.244,8.596 l -2.488,0.347 c -1.765,0.26 -3.067,0.81 -3.993,1.707 -0.983,0.985 -1.476,2.315 -1.476,4.052 0,3.675 2.72,6.251 7.176,6.251 2.835,0 4.89,-0.694 6.655,-2.402 L 4.572,16.033 c -1.302,1.244 -2.865,1.418 -4.224,1.418 -2.142,0 -3.183,-1.186 -3.183,-2.604 0,-0.521 0.174,-1.071 0.607,-1.476 0.406,-0.376 1.071,-0.695 1.91,-0.81 l 2.43,-0.348 C 3.993,11.952 5.179,11.432 6.047,10.622 7.146,9.579 7.638,8.075 7.638,6.251 7.638,2.258 4.311,0 0,0"
             inkscape:connector-curvature="0" /></g><path
           id="path84"
           style="fill:#231f20;fill-opacity:1;fill-rule:nonzero;stroke:none"
           d="m 532.201,169.432 h 4.021 v -20.606 h -4.021 z"
           inkscape:connector-curvature="0" /><g
           transform="translate(553.7266,150.9971)"
           id="g86"><path
             id="path88"
             style="fill:#231f20;fill-opacity:1;fill-rule:nonzero;stroke:none"
             d="m 0,0 c -1.649,-1.708 -3.617,-2.345 -5.815,-2.345 -2.257,0 -4.109,0.811 -5.555,2.258 -2.083,2.084 -2.026,4.66 -2.026,8.219 0,3.56 -0.057,6.136 2.026,8.219 1.446,1.447 3.24,2.258 5.555,2.258 4.774,0 7.204,-3.126 7.754,-6.599 h -4.051 c -0.462,1.939 -1.649,3.01 -3.703,3.01 -1.1,0 -1.997,-0.434 -2.575,-1.099 -0.782,-0.869 -0.984,-1.824 -0.984,-5.789 0,-3.965 0.202,-4.948 0.984,-5.817 0.578,-0.666 1.475,-1.07 2.575,-1.07 1.215,0 2.198,0.433 2.864,1.157 0.666,0.752 0.926,1.679 0.926,2.749 v 0.782 h -3.79 V 9.29 H 1.968 V 6.28 C 1.968,3.299 1.446,1.504 0,0"
             inkscape:connector-curvature="0" /></g><g
           transform="translate(571.9548,148.8264)"
           id="g90"><path
             id="path92"
             style="fill:#231f20;fill-opacity:1;fill-rule:nonzero;stroke:none"
             d="M 0,0 -8.159,12.647 V 0 h -4.022 v 20.606 h 3.587 L -0.434,7.987 V 20.606 H 3.587 V 0 Z"
             inkscape:connector-curvature="0" /></g><g
           transform="translate(321.2615,539.9396)"
           id="g94"><path
             id="path96"
             style="fill:#000000;fill-opacity:1;fill-rule:nonzero;stroke:none"
             d="M 0,0 C -4.904,0 -8.824,-2.209 -11.353,-6.419 L -46.62,-65.938 -81.908,-6.397 c -2.518,4.188 -6.438,6.408 -11.329,6.408 -3.599,0 -6.823,-1.338 -9.342,-3.857 -2.518,-2.509 -3.845,-5.745 -3.845,-9.334 v -67.397 h 13.954 l 0.011,64.618 34.436,-58.325 c 2.51,-4.188 6.438,-6.408 11.342,-6.408 4.902,0 8.821,2.22 11.34,6.43 l 34.571,58.324 v -64.639 h 13.944 v 67.397 c 0,3.6 -1.356,6.844 -3.939,9.365 C 6.635,-1.274 3.535,0 0,0"
             inkscape:connector-curvature="0" /></g><g
           transform="translate(547.3095,459.337)"
           id="g98"><path
             id="path100"
             style="fill:#000000;fill-opacity:1;fill-rule:nonzero;stroke:none"
             d="M 0,0 V 64.297 L -34.717,5.734 c -2.551,-4.274 -6.531,-6.512 -11.497,-6.512 -4.976,0 -8.946,2.238 -11.507,6.49 l -34.561,58.556 -0.021,-51.68 c 0,-3.64 -1.348,-6.918 -3.909,-9.469 -2.548,-2.548 -5.814,-3.897 -9.453,-3.897 -4.976,0 -8.946,2.238 -11.496,6.49 l -35.506,59.913 -35.484,-59.891 c -2.561,-4.274 -6.542,-6.512 -11.507,-6.512 -3.588,0 -6.738,1.296 -9.36,3.868 -2.158,2.094 -3.464,4.685 -3.856,7.568 v -157.08 H 14.11 V 0 Z"
             inkscape:connector-curvature="0" /></g><path
           id="path102"
           style="fill:#000000;fill-opacity:1;fill-rule:nonzero;stroke:none"
           d="m 561.326,539.914 h 14.047 v -80.63 h -14.047 z"
           inkscape:connector-curvature="0" /><g
           transform="translate(392.8805,539.9569)"
           id="g104"><path
             id="path106"
             style="fill:#000000;fill-opacity:1;fill-rule:nonzero;stroke:none"
             d="M 0,0 H -44.38 V -64.964 L -9.673,-6.408 C -7.444,-2.676 -4.116,-0.488 0,0"
             inkscape:connector-curvature="0" /></g><g
           transform="translate(465.6538,533.5702)"
           id="g108"><path
             id="path110"
             style="fill:#000000;fill-opacity:1;fill-rule:nonzero;stroke:none"
             d="m 0,0 35.506,-59.915 35.495,59.894 c 2.239,3.732 5.557,5.919 9.681,6.408 H -9.673 C -5.547,5.898 -2.229,3.711 0,0"
             inkscape:connector-curvature="0" /></g><g
           transform="translate(406.2107,533.5596)"
           id="g112"><path
             id="path114"
             style="fill:#000000;fill-opacity:1;fill-rule:nonzero;stroke:none"
             d="m 0,0 34.574,-58.556 0.011,51.691 c 0,3.629 1.345,6.905 3.906,9.466 2.158,2.159 4.833,3.454 7.818,3.796 H -9.671 C -5.544,5.909 -2.237,3.722 0,0"
             inkscape:connector-curvature="0" /></g><path
           id="path116"
           style="fill:#231f20;fill-opacity:1;fill-rule:nonzero;stroke:none"
           d="m 250.916,312.915 h -36.078 v 36.087 h 36.078 z"
           inkscape:connector-curvature="0" /><path
           id="path118"
           style="fill:#231f20;fill-opacity:1;fill-rule:nonzero;stroke:none"
           d="m 334.435,229.374 h -83.519 v 83.541 h 83.519 z"
           inkscape:connector-curvature="0" /><g
           transform="translate(561.4182,539.9144)"
           id="g120"><path
             id="path122"
             style="fill:#231f20;fill-opacity:1;fill-rule:nonzero;stroke:none"
             d="m 0,0 v -12.724 c 0,0 0.2,4.566 -3.687,8.645 C -7.574,0 -12.492,0 -12.492,0 Z"
             inkscape:connector-curvature="0" /></g></g></g></g></svg>