<?xml version="1.0" encoding="UTF-8" standalone="no"?>
<svg
   xmlns:dc="http://purl.org/dc/elements/1.1/"
   xmlns:cc="http://creativecommons.org/ns#"
   xmlns:rdf="http://www.w3.org/1999/02/22-rdf-syntax-ns#"
   xmlns:svg="http://www.w3.org/2000/svg"
   xmlns="http://www.w3.org/2000/svg"
   width="58.342388mm"
   height="14.405469mm"
   viewBox="0 0 206.725 51.043"
   id="svg6186"
   version="1.1">
  <defs
     id="defs6188" />
  <metadata
     id="metadata6191">
    <rdf:RDF>
      <cc:Work
         rdf:about="">
        <dc:format>image/svg+xml</dc:format>
        <dc:type
           rdf:resource="http://purl.org/dc/dcmitype/StillImage" />
        <dc:title></dc:title>
      </cc:Work>
    </rdf:RDF>
  </metadata>
  <g
     transform="translate(-343.25,-247.593)"
     id="g295">
    <path
       id="path297"
       d="m 439.568,254.719 c -0.188,0.336 -0.418,0.614 -0.691,0.842 -0.273,0.228 -0.588,0.396 -0.938,0.507 -0.352,0.112 -0.721,0.165 -1.109,0.165 -0.469,0 -0.893,-0.077 -1.27,-0.235 -0.379,-0.159 -0.719,-0.391 -1.02,-0.693 -0.217,-0.217 -0.381,-0.443 -0.496,-0.688 -0.115,-0.24 -0.199,-0.502 -0.246,-0.78 -0.047,-0.278 -0.074,-0.575 -0.082,-0.896 -0.008,-0.317 -0.012,-0.661 -0.012,-1.023 0,-0.366 0.004,-0.71 0.012,-1.027 0.008,-0.321 0.035,-0.618 0.082,-0.897 0.047,-0.276 0.131,-0.538 0.246,-0.778 0.115,-0.244 0.279,-0.473 0.496,-0.688 0.301,-0.303 0.641,-0.532 1.02,-0.692 0.377,-0.158 0.801,-0.236 1.27,-0.236 0.398,0 0.77,0.054 1.115,0.166 0.348,0.11 0.658,0.28 0.932,0.508 0.273,0.227 0.504,0.506 0.691,0.841 0.189,0.333 0.316,0.723 0.389,1.169 l -1.684,0 c -0.086,-0.343 -0.242,-0.629 -0.465,-0.859 -0.223,-0.231 -0.545,-0.348 -0.965,-0.348 -0.232,0 -0.438,0.041 -0.615,0.123 -0.18,0.077 -0.328,0.188 -0.447,0.32 -0.08,0.088 -0.148,0.185 -0.203,0.293 -0.057,0.105 -0.1,0.247 -0.131,0.424 -0.031,0.174 -0.053,0.398 -0.064,0.667 -0.014,0.271 -0.018,0.608 -0.018,1.017 0,0.402 0.004,0.743 0.018,1.013 0.012,0.269 0.033,0.492 0.064,0.668 0.031,0.176 0.074,0.314 0.131,0.423 0.055,0.109 0.123,0.204 0.203,0.294 0.119,0.134 0.268,0.242 0.447,0.32 0.178,0.081 0.383,0.12 0.615,0.12 0.42,0 0.742,-0.115 0.965,-0.346 0.223,-0.232 0.379,-0.518 0.465,-0.861 l 1.684,0 c -0.072,0.443 -0.199,0.834 -0.389,1.167 z"
       style="fill:#808285" />
    <path
       id="path299"
       d="m 447.742,252.94 c -0.008,0.32 -0.037,0.617 -0.088,0.896 -0.053,0.278 -0.137,0.54 -0.252,0.78 -0.113,0.244 -0.279,0.471 -0.494,0.688 -0.303,0.303 -0.639,0.534 -1.01,0.693 -0.371,0.158 -0.799,0.235 -1.281,0.235 -0.486,0 -0.916,-0.077 -1.289,-0.235 -0.373,-0.159 -0.713,-0.391 -1.014,-0.693 -0.215,-0.217 -0.383,-0.443 -0.496,-0.688 -0.117,-0.24 -0.197,-0.502 -0.244,-0.78 -0.049,-0.278 -0.076,-0.575 -0.082,-0.896 -0.01,-0.317 -0.012,-0.661 -0.012,-1.023 0,-0.366 0.002,-0.71 0.012,-1.027 0.006,-0.321 0.033,-0.618 0.082,-0.897 0.047,-0.276 0.127,-0.538 0.244,-0.778 0.113,-0.244 0.281,-0.473 0.496,-0.688 0.301,-0.303 0.641,-0.532 1.014,-0.692 0.373,-0.158 0.803,-0.236 1.289,-0.236 0.482,0 0.91,0.078 1.281,0.236 0.371,0.16 0.707,0.39 1.01,0.692 0.215,0.216 0.381,0.444 0.494,0.688 0.115,0.24 0.199,0.502 0.252,0.778 0.051,0.279 0.08,0.576 0.088,0.897 0.008,0.317 0.014,0.661 0.014,1.027 0,0.362 -0.006,0.706 -0.014,1.023 z m -1.664,-2.035 c -0.01,-0.267 -0.033,-0.485 -0.066,-0.66 -0.031,-0.176 -0.076,-0.318 -0.131,-0.424 -0.053,-0.109 -0.123,-0.205 -0.201,-0.292 -0.119,-0.136 -0.27,-0.246 -0.447,-0.327 -0.182,-0.084 -0.385,-0.129 -0.615,-0.129 -0.23,0 -0.439,0.045 -0.621,0.129 -0.184,0.081 -0.332,0.191 -0.455,0.327 -0.076,0.087 -0.145,0.183 -0.195,0.292 -0.051,0.105 -0.094,0.248 -0.125,0.424 -0.031,0.175 -0.053,0.394 -0.066,0.66 -0.012,0.269 -0.016,0.604 -0.016,1.012 0,0.402 0.004,0.74 0.016,1.007 0.014,0.266 0.035,0.487 0.066,0.662 0.031,0.173 0.074,0.316 0.125,0.424 0.051,0.106 0.119,0.205 0.195,0.292 0.123,0.136 0.271,0.244 0.455,0.328 0.182,0.084 0.391,0.125 0.621,0.125 0.23,0 0.434,-0.041 0.615,-0.125 0.178,-0.084 0.328,-0.192 0.447,-0.328 0.078,-0.087 0.148,-0.186 0.201,-0.292 0.055,-0.107 0.1,-0.251 0.131,-0.424 0.033,-0.175 0.057,-0.396 0.066,-0.662 0.014,-0.267 0.02,-0.604 0.02,-1.007 0,-0.408 -0.006,-0.743 -0.02,-1.012 z"
       style="fill:#808285" />
    <path
       id="path301"
       d="m 449.689,256.163 0,-8.496 1.656,0 0,7.015 3.855,0 0,1.481 -5.511,0 z"
       style="fill:#808285" />
    <path
       id="path303"
       d="m 456.84,256.163 0,-8.496 1.658,0 0,7.015 3.855,0 0,1.481 -5.513,0 z"
       style="fill:#808285" />
    <path
       id="path305"
       d="m 463.994,256.163 0,-8.496 5.598,0 0,1.48 -3.939,0 0,1.992 3.354,0 0,1.479 -3.354,0 0,2.063 3.939,0 0,1.481 -5.598,0 z"
       style="fill:#808285" />
    <path
       id="path307"
       d="m 477.248,254.196 c -0.123,0.4 -0.332,0.758 -0.625,1.07 -0.342,0.358 -0.715,0.609 -1.115,0.752 -0.402,0.144 -0.83,0.214 -1.285,0.214 -0.467,0 -0.893,-0.077 -1.27,-0.235 -0.377,-0.159 -0.719,-0.391 -1.021,-0.693 -0.213,-0.217 -0.377,-0.443 -0.494,-0.688 -0.115,-0.24 -0.197,-0.502 -0.246,-0.78 -0.043,-0.278 -0.074,-0.575 -0.08,-0.896 -0.008,-0.317 -0.014,-0.661 -0.014,-1.023 0,-0.366 0.006,-0.71 0.014,-1.027 0.006,-0.321 0.037,-0.618 0.08,-0.897 0.049,-0.276 0.131,-0.538 0.246,-0.778 0.117,-0.244 0.281,-0.473 0.494,-0.688 0.303,-0.303 0.643,-0.532 1.018,-0.692 0.371,-0.158 0.799,-0.236 1.273,-0.236 0.496,0 0.928,0.076 1.303,0.225 0.373,0.153 0.691,0.352 0.953,0.604 0.264,0.25 0.473,0.541 0.629,0.865 0.152,0.326 0.258,0.67 0.314,1.025 l -1.67,0 c -0.096,-0.408 -0.266,-0.715 -0.512,-0.924 -0.248,-0.212 -0.586,-0.318 -1.018,-0.318 -0.229,0 -0.434,0.045 -0.615,0.129 -0.178,0.081 -0.326,0.191 -0.443,0.327 -0.084,0.087 -0.146,0.183 -0.199,0.292 -0.051,0.105 -0.094,0.248 -0.125,0.424 -0.031,0.175 -0.055,0.394 -0.066,0.66 -0.012,0.269 -0.02,0.604 -0.02,1.012 0,0.402 0.008,0.743 0.02,1.013 0.012,0.269 0.035,0.492 0.066,0.668 0.031,0.176 0.074,0.314 0.125,0.423 0.053,0.109 0.115,0.204 0.199,0.294 0.117,0.134 0.266,0.242 0.443,0.32 0.182,0.081 0.387,0.12 0.615,0.12 0.256,0 0.48,-0.041 0.684,-0.125 0.195,-0.084 0.365,-0.2 0.498,-0.352 0.137,-0.159 0.232,-0.334 0.293,-0.52 0.061,-0.188 0.09,-0.392 0.09,-0.614 l 0,-0.323 -1.564,0 0,-1.395 3.213,0 0,1.242 c 0,0.612 -0.063,1.121 -0.188,1.525 z"
       style="fill:#808285" />
    <path
       id="path309"
       d="m 479.346,256.163 0,-8.496 5.596,0 0,1.48 -3.939,0 0,1.992 3.354,0 0,1.479 -3.354,0 0,2.063 3.939,0 0,1.481 -5.596,0 z"
       style="fill:#808285" />
    <path
       id="path311"
       d="m 495.908,252.94 c -0.01,0.32 -0.041,0.617 -0.092,0.896 -0.051,0.279 -0.135,0.54 -0.248,0.78 -0.117,0.244 -0.283,0.471 -0.494,0.688 -0.303,0.303 -0.641,0.534 -1.012,0.693 -0.371,0.158 -0.795,0.235 -1.281,0.235 -0.486,0 -0.916,-0.077 -1.289,-0.235 -0.377,-0.159 -0.713,-0.391 -1.014,-0.693 -0.215,-0.217 -0.379,-0.443 -0.498,-0.688 -0.115,-0.24 -0.195,-0.502 -0.242,-0.78 -0.047,-0.278 -0.078,-0.575 -0.086,-0.896 -0.006,-0.317 -0.012,-0.661 -0.012,-1.023 0,-0.366 0.006,-0.71 0.012,-1.027 0.008,-0.321 0.039,-0.618 0.086,-0.897 0.047,-0.276 0.127,-0.538 0.242,-0.778 0.119,-0.244 0.283,-0.473 0.498,-0.688 0.301,-0.303 0.637,-0.532 1.014,-0.692 0.373,-0.158 0.803,-0.236 1.289,-0.236 0.486,0 0.91,0.078 1.281,0.236 0.371,0.16 0.709,0.39 1.012,0.692 0.211,0.216 0.377,0.444 0.494,0.688 0.113,0.24 0.197,0.502 0.248,0.778 0.051,0.279 0.082,0.576 0.092,0.897 0.008,0.317 0.01,0.661 0.01,1.027 0,0.362 -0.002,0.706 -0.01,1.023 z m -1.666,-2.035 c -0.014,-0.267 -0.033,-0.485 -0.066,-0.66 -0.029,-0.176 -0.076,-0.318 -0.129,-0.424 -0.059,-0.109 -0.125,-0.205 -0.205,-0.292 -0.119,-0.136 -0.268,-0.246 -0.447,-0.327 -0.18,-0.084 -0.383,-0.129 -0.613,-0.129 -0.232,0 -0.438,0.045 -0.621,0.129 -0.186,0.081 -0.334,0.191 -0.453,0.327 -0.082,0.087 -0.145,0.183 -0.199,0.292 -0.049,0.105 -0.092,0.248 -0.123,0.424 -0.033,0.175 -0.055,0.394 -0.066,0.66 -0.012,0.269 -0.018,0.604 -0.018,1.012 0,0.402 0.006,0.74 0.018,1.007 0.012,0.266 0.033,0.487 0.066,0.662 0.031,0.173 0.074,0.316 0.123,0.424 0.055,0.106 0.117,0.205 0.199,0.292 0.119,0.136 0.268,0.244 0.453,0.328 0.184,0.084 0.389,0.125 0.621,0.125 0.23,0 0.434,-0.041 0.613,-0.125 0.179,-0.084 0.328,-0.192 0.447,-0.328 0.08,-0.087 0.146,-0.186 0.205,-0.292 0.053,-0.107 0.1,-0.251 0.129,-0.424 0.033,-0.175 0.053,-0.396 0.066,-0.662 0.012,-0.267 0.02,-0.604 0.02,-1.007 0,-0.408 -0.008,-0.743 -0.02,-1.012 z"
       style="fill:#808285" />
    <path
       id="path313"
       d="m 499.512,249.147 0,2.088 3.352,0 0,1.479 -3.352,0 0,3.449 -1.658,0 0,-8.496 5.596,0 0,1.48 -3.938,0 z"
       style="fill:#808285" />
    <path
       id="path315"
       d="m 514.424,252.835 c 0,0.31 -0.021,0.609 -0.068,0.905 -0.051,0.295 -0.133,0.576 -0.252,0.849 -0.119,0.271 -0.297,0.525 -0.537,0.762 -0.279,0.279 -0.611,0.484 -0.996,0.615 -0.387,0.131 -0.801,0.197 -1.246,0.197 l -3.066,0 0,-8.496 3.066,0 c 0.445,0 0.859,0.063 1.246,0.197 0.385,0.129 0.717,0.334 0.996,0.614 0.24,0.238 0.418,0.49 0.537,0.752 0.119,0.264 0.201,0.537 0.252,0.824 0.047,0.285 0.068,0.584 0.068,0.895 0,0.302 0,0.612 0,0.93 0,0.319 0,0.638 0,0.956 z m -1.67,-1.787 c -0.008,-0.232 -0.023,-0.438 -0.045,-0.613 -0.023,-0.173 -0.061,-0.32 -0.109,-0.442 -0.047,-0.118 -0.111,-0.225 -0.191,-0.32 -0.143,-0.175 -0.311,-0.306 -0.512,-0.395 -0.197,-0.088 -0.441,-0.13 -0.729,-0.13 l -1.252,0 0,5.534 1.252,0 c 0.287,0 0.531,-0.042 0.729,-0.129 0.201,-0.09 0.369,-0.219 0.512,-0.395 0.152,-0.19 0.25,-0.459 0.295,-0.801 0.043,-0.342 0.062,-0.835 0.062,-1.479 0,-0.316 -0.004,-0.594 -0.012,-0.83 z"
       style="fill:#808285" />
    <path
       id="path317"
       d="m 516.369,256.163 0,-8.496 5.596,0 0,1.48 -3.938,0 0,1.992 3.355,0 0,1.479 -3.355,0 0,2.063 3.938,0 0,1.481 -5.596,0 z"
       style="fill:#808285" />
    <path
       id="path319"
       d="m 529.379,254.755 c -0.164,0.318 -0.387,0.588 -0.67,0.806 -0.281,0.218 -0.617,0.387 -0.996,0.502 -0.383,0.115 -0.795,0.17 -1.242,0.17 -0.643,0 -1.219,-0.08 -1.721,-0.242 -0.508,-0.165 -0.967,-0.456 -1.383,-0.876 l 1.076,-1.076 c 0.271,0.271 0.582,0.457 0.93,0.562 0.352,0.104 0.725,0.155 1.123,0.155 0.494,0 0.867,-0.09 1.121,-0.269 0.254,-0.178 0.383,-0.439 0.383,-0.779 0,-0.312 -0.088,-0.553 -0.264,-0.719 -0.088,-0.079 -0.184,-0.142 -0.291,-0.186 -0.109,-0.043 -0.262,-0.081 -0.461,-0.111 l -1.025,-0.144 c -0.725,-0.104 -1.273,-0.34 -1.646,-0.705 -0.404,-0.406 -0.609,-0.961 -0.609,-1.669 0,-0.383 0.068,-0.733 0.205,-1.044 0.133,-0.314 0.328,-0.586 0.584,-0.813 0.254,-0.226 0.564,-0.401 0.93,-0.531 0.365,-0.125 0.779,-0.188 1.24,-0.188 0.59,0 1.102,0.076 1.541,0.225 0.436,0.153 0.84,0.408 1.203,0.764 l -1.051,1.039 c -0.27,-0.255 -0.557,-0.416 -0.865,-0.484 -0.303,-0.066 -0.598,-0.1 -0.875,-0.1 -0.445,0 -0.775,0.104 -0.99,0.316 -0.215,0.21 -0.322,0.462 -0.322,0.758 0,0.11 0.02,0.218 0.061,0.32 0.037,0.104 0.102,0.198 0.189,0.287 0.088,0.08 0.197,0.15 0.328,0.209 0.131,0.06 0.285,0.099 0.461,0.125 l 1,0.144 c 0.391,0.057 0.711,0.136 0.969,0.244 0.254,0.107 0.473,0.245 0.656,0.414 0.229,0.212 0.396,0.47 0.5,0.774 0.104,0.302 0.156,0.646 0.156,1.025 -10e-4,0.414 -0.085,0.78 -0.245,1.097 z"
       style="fill:#808285" />
    <path
       id="path321"
       d="m 531.373,256.163 0,-8.496 1.66,0 0,8.496 -1.66,0 z"
       style="fill:#808285" />
    <path
       id="path323"
       d="m 541.139,254.196 c -0.123,0.4 -0.332,0.758 -0.625,1.07 -0.344,0.358 -0.713,0.609 -1.117,0.752 -0.402,0.144 -0.828,0.214 -1.283,0.214 -0.469,0 -0.893,-0.077 -1.27,-0.235 -0.379,-0.159 -0.719,-0.391 -1.02,-0.693 -0.215,-0.217 -0.379,-0.443 -0.494,-0.688 -0.117,-0.24 -0.199,-0.502 -0.246,-0.78 -0.049,-0.278 -0.076,-0.575 -0.086,-0.896 -0.006,-0.317 -0.01,-0.661 -0.01,-1.023 0,-0.366 0.004,-0.71 0.01,-1.027 0.01,-0.321 0.037,-0.618 0.086,-0.897 0.047,-0.276 0.129,-0.538 0.246,-0.778 0.115,-0.244 0.279,-0.473 0.494,-0.688 0.301,-0.303 0.639,-0.532 1.012,-0.692 0.375,-0.158 0.801,-0.236 1.277,-0.236 0.496,0 0.93,0.076 1.303,0.225 0.373,0.153 0.691,0.352 0.955,0.604 0.262,0.25 0.471,0.541 0.625,0.865 0.156,0.326 0.262,0.67 0.318,1.025 l -1.674,0 c -0.092,-0.408 -0.266,-0.715 -0.512,-0.924 -0.246,-0.212 -0.584,-0.318 -1.016,-0.318 -0.229,0 -0.434,0.045 -0.613,0.129 -0.18,0.081 -0.328,0.191 -0.447,0.327 -0.08,0.087 -0.146,0.183 -0.197,0.292 -0.051,0.105 -0.094,0.248 -0.125,0.424 -0.033,0.175 -0.055,0.394 -0.066,0.66 -0.01,0.269 -0.018,0.604 -0.018,1.012 0,0.402 0.008,0.743 0.018,1.013 0.012,0.269 0.033,0.492 0.066,0.668 0.031,0.176 0.074,0.314 0.125,0.423 0.051,0.109 0.117,0.204 0.197,0.294 0.119,0.134 0.268,0.242 0.447,0.32 0.18,0.081 0.385,0.12 0.613,0.12 0.258,0 0.482,-0.041 0.684,-0.125 0.195,-0.084 0.365,-0.2 0.498,-0.352 0.137,-0.159 0.234,-0.334 0.293,-0.52 0.061,-0.188 0.09,-0.392 0.09,-0.614 l 0,-0.323 -1.564,0 0,-1.395 3.211,0 0,1.242 c 0,0.612 -0.06,1.121 -0.185,1.525 z"
       style="fill:#808285" />
    <path
       id="path325"
       d="m 548.258,256.163 -3.363,-5.214 0,5.214 -1.662,0 0,-8.496 1.482,0 3.363,5.203 0,-5.203 1.66,0 0,8.496 -1.48,0 z"
       style="fill:#808285" />
  </g>
  <g
     transform="translate(-343.25,-247.593)"
     id="g327">
    <path
       id="path329"
       d="m 433.725,265.522 0,-5.668 1.107,0 0,5.668 -1.107,0 z"
       style="fill:#808285" />
    <path
       id="path331"
       d="m 439.848,265.522 -2.244,-3.477 0,3.477 -1.105,0 0,-5.668 0.986,0 2.246,3.47 0,-3.47 1.105,0 0,5.668 -0.988,0 z"
       style="fill:#808285" />
    <path
       id="path333"
       d="m 446.619,263.303 c 0,0.208 -0.014,0.409 -0.051,0.604 -0.029,0.197 -0.086,0.387 -0.164,0.564 -0.08,0.183 -0.197,0.353 -0.357,0.51 -0.188,0.186 -0.408,0.323 -0.666,0.411 -0.258,0.085 -0.533,0.131 -0.83,0.131 l -2.047,0 0,-5.668 2.047,0 c 0.297,0 0.572,0.045 0.83,0.133 0.258,0.087 0.479,0.224 0.666,0.411 0.16,0.158 0.277,0.324 0.357,0.5 0.078,0.174 0.135,0.359 0.164,0.548 0.037,0.191 0.051,0.391 0.051,0.6 0,0.199 0,0.407 0,0.619 0,0.21 0,0.424 0,0.637 z m -1.115,-1.193 c -0.004,-0.156 -0.016,-0.292 -0.029,-0.408 -0.018,-0.116 -0.041,-0.216 -0.074,-0.295 -0.031,-0.078 -0.074,-0.149 -0.125,-0.215 -0.098,-0.116 -0.209,-0.205 -0.344,-0.263 -0.129,-0.057 -0.295,-0.085 -0.484,-0.085 l -0.838,0 0,3.69 0.838,0 c 0.189,0 0.355,-0.03 0.484,-0.089 0.135,-0.055 0.246,-0.144 0.344,-0.262 0.1,-0.128 0.164,-0.303 0.193,-0.532 0.031,-0.228 0.043,-0.558 0.043,-0.987 0,-0.211 -0.002,-0.396 -0.008,-0.554 z"
       style="fill:#808285" />
    <path
       id="path335"
       d="m 452.076,264.401 c -0.109,0.245 -0.258,0.452 -0.445,0.623 -0.191,0.174 -0.408,0.308 -0.662,0.402 -0.252,0.096 -0.523,0.143 -0.816,0.143 -0.291,0 -0.562,-0.047 -0.814,-0.143 -0.254,-0.095 -0.471,-0.229 -0.66,-0.402 -0.189,-0.171 -0.338,-0.378 -0.445,-0.623 -0.109,-0.246 -0.164,-0.52 -0.164,-0.821 l 0,-3.726 1.107,0 0,3.686 c 0,0.327 0.086,0.587 0.264,0.77 0.172,0.182 0.414,0.274 0.713,0.274 0.303,0 0.543,-0.093 0.723,-0.274 0.176,-0.183 0.264,-0.442 0.264,-0.77 l 0,-3.686 1.102,0 0,3.726 c -0.003,0.302 -0.059,0.575 -0.167,0.821 z"
       style="fill:#808285" />
    <path
       id="path337"
       d="m 457.357,264.584 c -0.105,0.214 -0.256,0.391 -0.445,0.538 -0.186,0.145 -0.408,0.255 -0.664,0.333 -0.254,0.073 -0.531,0.114 -0.828,0.114 -0.428,0 -0.814,-0.055 -1.15,-0.164 -0.338,-0.107 -0.643,-0.3 -0.92,-0.582 l 0.719,-0.716 c 0.182,0.181 0.387,0.303 0.621,0.372 0.232,0.068 0.48,0.104 0.748,0.104 0.326,0 0.576,-0.062 0.746,-0.18 0.172,-0.119 0.256,-0.296 0.256,-0.522 0,-0.207 -0.059,-0.365 -0.176,-0.476 -0.057,-0.053 -0.125,-0.095 -0.193,-0.125 -0.074,-0.028 -0.176,-0.054 -0.307,-0.075 l -0.688,-0.096 c -0.482,-0.069 -0.846,-0.225 -1.096,-0.468 -0.271,-0.271 -0.408,-0.644 -0.408,-1.114 0,-0.256 0.045,-0.488 0.137,-0.696 0.092,-0.213 0.221,-0.391 0.391,-0.542 0.17,-0.153 0.377,-0.269 0.619,-0.354 0.246,-0.085 0.521,-0.127 0.828,-0.127 0.393,0 0.736,0.049 1.027,0.151 0.293,0.101 0.559,0.27 0.805,0.507 l -0.701,0.694 c -0.182,-0.172 -0.373,-0.278 -0.576,-0.324 -0.207,-0.046 -0.4,-0.066 -0.586,-0.066 -0.297,0 -0.518,0.07 -0.658,0.21 -0.145,0.141 -0.217,0.309 -0.217,0.505 0,0.074 0.012,0.147 0.039,0.216 0.027,0.069 0.068,0.134 0.129,0.191 0.059,0.053 0.131,0.101 0.219,0.138 0.086,0.042 0.189,0.071 0.305,0.085 l 0.67,0.096 c 0.26,0.037 0.475,0.091 0.645,0.16 0.168,0.074 0.316,0.167 0.438,0.277 0.152,0.143 0.264,0.316 0.334,0.518 0.068,0.201 0.105,0.429 0.105,0.683 -0.002,0.279 -0.058,0.522 -0.168,0.735 z"
       style="fill:#808285" />
    <path
       id="path339"
       d="m 461.211,260.845 0,4.678 -1.105,0 0,-4.678 -1.479,0 0,-0.99 4.066,0 0,0.99 -1.482,0 z"
       style="fill:#808285" />
    <path
       id="path341"
       d="m 467.014,265.522 -1.107,-2.261 -0.797,0 0,2.261 -1.105,0 0,-5.668 2.221,0 c 0.289,0 0.545,0.048 0.773,0.142 0.229,0.092 0.42,0.217 0.582,0.374 0.158,0.155 0.277,0.34 0.361,0.547 0.082,0.212 0.121,0.438 0.121,0.674 0,0.201 -0.025,0.381 -0.082,0.541 -0.057,0.16 -0.133,0.303 -0.227,0.425 -0.094,0.127 -0.207,0.23 -0.33,0.319 -0.127,0.088 -0.256,0.154 -0.395,0.203 l 1.266,2.443 -1.281,0 z m -0.274,-4.474 c -0.148,-0.138 -0.344,-0.203 -0.586,-0.203 l -1.045,0 0,1.486 1.045,0 c 0.242,0 0.438,-0.07 0.586,-0.205 0.145,-0.138 0.217,-0.316 0.217,-0.539 0,-0.222 -0.072,-0.399 -0.217,-0.539 z"
       style="fill:#808285" />
    <path
       id="path343"
       d="m 469.619,265.522 0,-5.668 1.105,0 0,5.668 -1.105,0 z"
       style="fill:#808285" />
    <path
       id="path345"
       d="m 475.785,265.522 -0.334,-1.002 -2.014,0 -0.342,1.002 -1.154,0 2.059,-5.668 0.867,0 2.072,5.668 -1.154,0 z m -1.322,-3.994 -0.717,2.06 1.408,0 -0.691,-2.06 z"
       style="fill:#808285" />
    <path
       id="path347"
       d="m 478.152,265.522 0,-5.668 1.105,0 0,4.681 2.57,0 0,0.987 -3.675,0 z"
       style="fill:#808285" />
    <path
       id="path349"
       d="m 488.592,265.522 -0.334,-1.002 -2.014,0 -0.342,1.002 -1.154,0 2.062,-5.668 0.867,0 2.066,5.668 -1.151,0 z m -1.321,-3.994 -0.717,2.06 1.41,0 -0.693,-2.06 z"
       style="fill:#808285" />
    <path
       id="path351"
       d="m 493.969,265.522 -1.109,-2.261 -0.795,0 0,2.261 -1.105,0 0,-5.668 2.221,0 c 0.285,0 0.545,0.048 0.771,0.142 0.227,0.092 0.42,0.217 0.582,0.374 0.158,0.155 0.277,0.34 0.361,0.547 0.082,0.212 0.123,0.438 0.123,0.674 0,0.201 -0.027,0.381 -0.084,0.541 -0.055,0.16 -0.131,0.303 -0.227,0.425 -0.096,0.127 -0.207,0.23 -0.33,0.319 -0.127,0.088 -0.256,0.154 -0.395,0.203 l 1.266,2.443 -1.279,0 z m -0.276,-4.474 c -0.145,-0.138 -0.344,-0.203 -0.586,-0.203 l -1.043,0 0,1.486 1.043,0 c 0.242,0 0.441,-0.07 0.586,-0.205 0.145,-0.138 0.217,-0.316 0.217,-0.539 0,-0.222 -0.072,-0.399 -0.217,-0.539 z"
       style="fill:#808285" />
    <path
       id="path353"
       d="m 498.781,260.845 0,4.678 -1.107,0 0,-4.678 -1.48,0 0,-0.99 4.066,0 0,0.99 -1.479,0 z"
       style="fill:#808285" />
    <path
       id="path355"
       d="m 505.178,264.584 c -0.109,0.214 -0.26,0.391 -0.447,0.538 -0.188,0.145 -0.41,0.255 -0.664,0.333 -0.256,0.073 -0.529,0.114 -0.826,0.114 -0.432,0 -0.814,-0.055 -1.148,-0.164 -0.338,-0.107 -0.646,-0.3 -0.922,-0.582 l 0.717,-0.716 c 0.18,0.181 0.387,0.303 0.621,0.372 0.232,0.068 0.482,0.104 0.748,0.104 0.328,0 0.578,-0.062 0.748,-0.18 0.172,-0.119 0.256,-0.296 0.256,-0.522 0,-0.207 -0.059,-0.365 -0.178,-0.476 -0.059,-0.053 -0.123,-0.095 -0.195,-0.125 -0.07,-0.028 -0.172,-0.054 -0.305,-0.075 l -0.686,-0.096 c -0.482,-0.069 -0.848,-0.225 -1.098,-0.468 -0.27,-0.271 -0.406,-0.644 -0.406,-1.114 0,-0.256 0.045,-0.488 0.137,-0.696 0.088,-0.213 0.221,-0.391 0.391,-0.542 0.168,-0.153 0.375,-0.269 0.619,-0.354 0.244,-0.085 0.52,-0.127 0.826,-0.127 0.395,0 0.738,0.049 1.029,0.151 0.291,0.101 0.561,0.27 0.803,0.507 l -0.701,0.694 c -0.178,-0.172 -0.371,-0.278 -0.576,-0.324 -0.203,-0.046 -0.398,-0.066 -0.586,-0.066 -0.297,0 -0.516,0.07 -0.66,0.21 -0.143,0.141 -0.215,0.309 -0.215,0.505 0,0.074 0.014,0.147 0.041,0.216 0.025,0.069 0.068,0.134 0.127,0.191 0.057,0.053 0.131,0.101 0.219,0.138 0.088,0.042 0.189,0.071 0.307,0.085 l 0.668,0.096 c 0.26,0.037 0.473,0.091 0.645,0.16 0.17,0.074 0.314,0.167 0.438,0.277 0.154,0.143 0.266,0.316 0.334,0.518 0.07,0.201 0.104,0.429 0.104,0.683 -0.003,0.279 -0.058,0.522 -0.165,0.735 z"
       style="fill:#808285" />
    <path
       id="path357"
       d="m 512.592,265.522 -0.414,-0.494 c -0.064,0.053 -0.139,0.109 -0.223,0.173 -0.086,0.06 -0.188,0.118 -0.303,0.173 -0.117,0.057 -0.252,0.103 -0.406,0.141 -0.154,0.036 -0.33,0.055 -0.533,0.055 -0.625,0 -1.096,-0.152 -1.406,-0.456 -0.311,-0.306 -0.465,-0.728 -0.465,-1.264 0,-0.178 0.029,-0.345 0.092,-0.495 0.061,-0.15 0.141,-0.289 0.234,-0.414 0.096,-0.125 0.203,-0.238 0.328,-0.339 0.121,-0.101 0.242,-0.191 0.365,-0.271 -0.059,-0.065 -0.119,-0.139 -0.188,-0.225 -0.064,-0.084 -0.127,-0.176 -0.184,-0.273 -0.055,-0.096 -0.104,-0.203 -0.139,-0.321 -0.037,-0.118 -0.057,-0.245 -0.057,-0.383 0,-0.192 0.035,-0.367 0.104,-0.528 0.07,-0.162 0.17,-0.303 0.301,-0.418 0.129,-0.116 0.285,-0.21 0.471,-0.275 0.186,-0.066 0.4,-0.098 0.639,-0.098 0.223,0 0.422,0.031 0.602,0.098 0.176,0.065 0.33,0.159 0.459,0.278 0.123,0.119 0.221,0.264 0.289,0.427 0.064,0.166 0.1,0.342 0.1,0.534 0,0.222 -0.055,0.409 -0.16,0.565 -0.105,0.153 -0.246,0.292 -0.422,0.42 -0.004,0.006 -0.029,0.023 -0.072,0.057 -0.041,0.029 -0.098,0.07 -0.162,0.117 -0.066,0.05 -0.123,0.088 -0.17,0.119 l 0.953,1.133 c 0.09,-0.122 0.158,-0.27 0.201,-0.439 0.045,-0.17 0.076,-0.356 0.086,-0.555 l 0.98,0 c -0.023,0.362 -0.08,0.692 -0.17,0.985 -0.09,0.292 -0.236,0.548 -0.438,0.772 l 1.02,1.201 -1.312,0 z m -2.174,-2.544 c -0.17,0.122 -0.309,0.246 -0.412,0.371 -0.109,0.129 -0.158,0.293 -0.158,0.495 0,0.116 0.02,0.224 0.066,0.321 0.045,0.101 0.105,0.182 0.18,0.252 0.076,0.069 0.17,0.123 0.273,0.162 0.102,0.039 0.215,0.061 0.338,0.061 0.17,0 0.318,-0.027 0.449,-0.082 0.129,-0.053 0.262,-0.138 0.395,-0.254 l -1.131,-1.326 z m 0.736,-2.156 c -0.082,-0.087 -0.197,-0.132 -0.346,-0.132 -0.154,0 -0.27,0.045 -0.352,0.132 -0.078,0.088 -0.119,0.196 -0.119,0.331 0,0.104 0.037,0.211 0.111,0.311 0.076,0.101 0.164,0.209 0.264,0.328 0.041,-0.027 0.121,-0.08 0.24,-0.162 0.088,-0.062 0.166,-0.133 0.229,-0.209 0.064,-0.079 0.096,-0.167 0.096,-0.268 0,-0.134 -0.039,-0.243 -0.123,-0.331 z"
       style="fill:#808285" />
    <path
       id="path359"
       d="m 521.432,265.522 0,-3.305 -1.082,2.15 -0.746,0 -1.092,-2.15 0,3.305 -1.105,0 0,-5.668 1.09,0 1.48,3.067 1.471,-3.067 1.092,0 0,5.668 -1.108,0 z"
       style="fill:#808285" />
    <path
       id="path361"
       d="m 524.209,265.522 0,-5.668 3.734,0 0,0.99 -2.629,0 0,1.328 2.238,0 0,0.986 -2.238,0 0,1.376 2.629,0 0,0.987 -3.734,0 z"
       style="fill:#808285" />
    <path
       id="path363"
       d="m 531.725,260.845 0,4.678 -1.107,0 0,-4.678 -1.477,0 0,-0.99 4.066,0 0,0.99 -1.482,0 z"
       style="fill:#808285" />
    <path
       id="path365"
       d="m 537.541,265.522 0,-2.37 -1.916,0 0,2.37 -1.109,0 0,-5.668 1.109,0 0,2.318 1.916,0 0,-2.318 1.107,0 0,5.668 -1.107,0 z"
       style="fill:#808285" />
    <path
       id="path367"
       d="m 544.342,263.373 c -0.004,0.213 -0.023,0.411 -0.057,0.598 -0.035,0.185 -0.092,0.358 -0.166,0.521 -0.076,0.163 -0.189,0.316 -0.332,0.457 -0.203,0.204 -0.424,0.355 -0.674,0.464 -0.246,0.105 -0.531,0.157 -0.854,0.157 -0.324,0 -0.611,-0.052 -0.859,-0.157 -0.25,-0.108 -0.477,-0.26 -0.678,-0.464 -0.145,-0.141 -0.254,-0.294 -0.332,-0.457 -0.076,-0.162 -0.129,-0.336 -0.162,-0.521 -0.031,-0.187 -0.051,-0.385 -0.055,-0.598 -0.006,-0.212 -0.008,-0.441 -0.008,-0.685 0,-0.242 0.002,-0.471 0.008,-0.685 0.004,-0.212 0.023,-0.41 0.055,-0.597 0.033,-0.185 0.086,-0.359 0.162,-0.522 0.078,-0.159 0.188,-0.313 0.332,-0.455 0.201,-0.204 0.428,-0.357 0.678,-0.463 0.248,-0.105 0.535,-0.157 0.859,-0.157 0.322,0 0.607,0.052 0.854,0.157 0.25,0.105 0.471,0.259 0.674,0.463 0.143,0.142 0.256,0.296 0.332,0.455 0.074,0.163 0.131,0.338 0.166,0.522 0.033,0.187 0.053,0.385 0.057,0.597 0.008,0.214 0.01,0.442 0.01,0.685 0,0.244 -0.002,0.473 -0.01,0.685 z m -1.11,-1.358 c -0.006,-0.175 -0.02,-0.323 -0.043,-0.439 -0.021,-0.118 -0.051,-0.211 -0.088,-0.283 -0.037,-0.071 -0.082,-0.138 -0.135,-0.197 -0.08,-0.088 -0.18,-0.161 -0.299,-0.215 -0.119,-0.058 -0.256,-0.086 -0.408,-0.086 -0.154,0 -0.293,0.028 -0.414,0.086 -0.123,0.054 -0.223,0.127 -0.303,0.215 -0.055,0.06 -0.098,0.126 -0.131,0.197 -0.037,0.072 -0.064,0.165 -0.086,0.283 -0.02,0.116 -0.033,0.265 -0.041,0.439 -0.012,0.18 -0.014,0.402 -0.014,0.674 0,0.271 0.002,0.495 0.014,0.674 0.008,0.176 0.021,0.324 0.041,0.441 0.021,0.119 0.049,0.21 0.086,0.281 0.033,0.071 0.076,0.139 0.131,0.198 0.08,0.088 0.18,0.16 0.303,0.215 0.121,0.057 0.26,0.086 0.414,0.086 0.152,0 0.289,-0.029 0.408,-0.086 0.119,-0.055 0.219,-0.127 0.299,-0.215 0.053,-0.06 0.098,-0.127 0.135,-0.198 0.037,-0.071 0.066,-0.162 0.088,-0.281 0.023,-0.117 0.037,-0.266 0.043,-0.441 0.01,-0.179 0.012,-0.403 0.012,-0.674 0,-0.272 -0.002,-0.495 -0.012,-0.674 z"
       style="fill:#808285" />
    <path
       id="path369"
       d="m 549.975,263.303 c 0,0.208 -0.018,0.409 -0.047,0.604 -0.033,0.197 -0.088,0.387 -0.168,0.564 -0.082,0.183 -0.199,0.353 -0.359,0.51 -0.186,0.186 -0.408,0.323 -0.662,0.411 -0.26,0.085 -0.535,0.131 -0.834,0.131 l -2.045,0 0,-5.668 2.045,0 c 0.299,0 0.574,0.045 0.834,0.133 0.254,0.087 0.477,0.224 0.662,0.411 0.16,0.158 0.277,0.324 0.359,0.5 0.08,0.174 0.135,0.359 0.168,0.548 0.029,0.191 0.047,0.391 0.047,0.6 0,0.199 0,0.407 0,0.619 0,0.21 0,0.424 0,0.637 z m -1.116,-1.193 c -0.004,-0.156 -0.018,-0.292 -0.033,-0.408 -0.015,-0.116 -0.037,-0.216 -0.07,-0.295 -0.031,-0.078 -0.074,-0.149 -0.127,-0.215 -0.098,-0.116 -0.207,-0.205 -0.342,-0.263 -0.133,-0.057 -0.295,-0.085 -0.486,-0.085 l -0.838,0 0,3.69 0.838,0 c 0.191,0 0.354,-0.03 0.486,-0.089 0.135,-0.055 0.244,-0.144 0.342,-0.262 0.1,-0.128 0.166,-0.303 0.195,-0.532 0.029,-0.228 0.043,-0.558 0.043,-0.987 0,-0.211 -0.002,-0.396 -0.008,-0.554 z"
       style="fill:#808285" />
  </g>
  <path
     style="fill:#808285"
     d="m 23.932,0.011 c -1.104,0 -1.985,0.496 -2.553,1.442 L 13.449,14.834 5.513,1.45 C 4.949,0.507 4.066,0.011 2.964,0.011 2.158,0.011 1.431,0.31 0.865,0.875 0.299,1.441 0,2.166 0,2.974 l 0,15.153 3.137,0 L 3.14,3.599 10.883,16.71 c 0.564,0.942 1.446,1.44 2.551,1.44 1.101,0 1.983,-0.497 2.55,-1.444 l 7.773,-13.112 0,14.532 3.138,0 0,-15.152 C 26.895,2.163 26.587,1.436 26.007,0.868 25.424,0.299 24.725,0.011 23.932,0.011 Z"
     id="path375" />
  <rect
     style="fill:#808285"
     x="81.036987"
     y="0.011003906"
     width="3.1389999"
     height="18.124001"
     id="rect377" />
  <g
     transform="translate(-343.25,-247.593)"
     id="g379">
    <path
       id="path381"
       d="m 384.827,247.594 -9.98,0 0,14.605 7.803,-13.164 c 0.501,-0.839 1.249,-1.331 2.177,-1.441 z"
       style="fill:#35b0e5" />
    <path
       id="path383"
       d="m 419.551,265.718 0,-14.454 -7.807,13.165 c -0.576,0.96 -1.471,1.465 -2.586,1.465 -1.119,0 -2.014,-0.505 -2.588,-1.46 l -7.773,-13.163 -0.002,11.618 c 0,0.818 -0.305,1.554 -0.877,2.128 -0.576,0.573 -1.311,0.877 -2.127,0.877 -1.119,0 -2.013,-0.505 -2.585,-1.46 l -7.984,-13.467 -7.979,13.462 c -0.575,0.96 -1.472,1.465 -2.588,1.465 -0.807,0 -1.514,-0.292 -2.104,-0.87 -0.484,-0.471 -0.777,-1.054 -0.867,-1.702 l 0,35.314 51.041,0 0,-32.918 -3.174,0 z"
       style="fill:#35b0e5" />
    <path
       id="path385"
       d="m 401.188,249.031 7.982,13.467 7.984,-13.463 c 0.502,-0.84 1.25,-1.331 2.176,-1.441 l -20.316,0 c 0.927,0.11 1.672,0.601 2.174,1.437 z"
       style="fill:#35b0e5" />
    <path
       id="path387"
       d="m 387.821,249.031 7.775,13.163 0.002,-11.617 c 0,-0.817 0.303,-1.555 0.879,-2.13 0.484,-0.484 1.087,-0.773 1.757,-0.854 l -12.588,0 c 0.928,0.111 1.673,0.602 2.175,1.438 z"
       style="fill:#35b0e5" />
  </g>
  <text
     xml:space="preserve"
     style="font-style:normal;font-weight:normal;font-size:2.2756362px;line-height:125%;font-family:sans-serif;text-align:center;letter-spacing:0px;word-spacing:0px;text-anchor:middle;fill:#808285;fill-opacity:1;stroke:none;stroke-width:1px;stroke-linecap:butt;stroke-linejoin:miter;stroke-opacity:1;"
     x="82.721489"
     y="51.042999"
     id="text4139"><tspan
       style="fill:#808285;fill-opacity:1;"
       id="tspan4141"
       x="82.721489"
       y="51.042999">TM</tspan></text>
</svg>
